# Batch 72 (tex 1)
mtllib batch_0072.mtl

v -4.000002 4.250002 2.500001
#vw 00000000
v -2.500004 3.000009 1.750001
#vw 00000001
v -4.000002 0.000000 5.000001
#vw 00000000
v -2.500004 0.000006 3.500001
#vw 00000001
v -4.000002 -4.249996 2.500001
#vw 00000000
v -2.500004 -2.999991 1.750001
#vw 00000001
v -4.000002 -4.249996 -2.500000
#vw 00000000
v -2.500004 -2.999991 -1.750001
#vw 00000001
v -4.000002 0.000000 -5.000001
#vw 00000000
v -2.500004 0.000006 -3.500000
#vw 00000001
v -4.000002 4.250002 -2.500000
#vw 00000000
v -2.500004 3.000009 -1.750001
#vw 00000001
v -4.000002 4.250002 2.500001
#vw 00000000
v -2.500004 3.000009 1.750001
#vw 00000001

vt 0.959950 0.944785
vt 0.993585 0.938850
vt 0.959950 0.972484
vt 0.993585 0.960613
vt 0.959950 0.944785
vt 0.993585 0.938850
vt 0.959950 0.905215
vt 0.993585 0.911150
vt 0.959950 0.877516
vt 0.993585 0.889387
vt 0.959950 0.905215
vt 0.993585 0.911150
vt 0.959950 0.944785
vt 0.993585 0.938850

vn -0.005174 -0.870797 -0.491616
vn 0.030026 -0.864297 -0.502085
vn 0.035644 0.000201 -0.999365
vn 0.002118 0.009725 -0.999950
vn -0.004879 0.870698 -0.491795
vn 0.006272 0.881528 -0.472091
vn -0.013008 0.866755 0.498565
vn 0.001358 0.854464 0.519509
vn 0.006543 -0.000205 0.999979
vn -0.005812 -0.017195 0.999835
vn -0.012713 -0.866655 0.498747
vn 0.020188 -0.873885 0.485713
vn -0.005174 -0.870797 -0.491616
vn 0.030026 -0.864297 -0.502085

g batch_0072
usemtl batch_0072
f 1/1/1 2/2/2 3/3/3
f 2/2/2 4/4/4 3/3/3
f 3/3/3 4/4/4 5/5/5
f 4/4/4 6/6/6 5/5/5
f 5/5/5 6/6/6 7/7/7
f 6/6/6 8/8/8 7/7/7
f 7/7/7 8/8/8 9/9/9
f 8/8/8 10/10/10 9/9/9
f 9/9/9 10/10/10 11/11/11
f 10/10/10 12/12/12 11/11/11
f 11/11/11 12/12/12 13/13/13
f 12/12/12 14/14/14 13/13/13
