# Batch 110 (tex 0)
mtllib batch_0110.mtl

v -10.000000 -7.499999 0.600000
#vw 00000000
v -9.000002 7.499993 -0.250000
#vw 00000001
v -5.000002 -5.500001 9.500001
#vw 00000000
v -4.250002 7.499993 9.000002
#vw 00000001
v 3.749999 -5.500001 9.500001
#vw 00000000
v 5.249998 7.499993 9.000002
#vw 00000001
v 9.999999 7.499993 -0.250000
#vw 00000000
v 8.700000 -7.499999 0.600000
#vw 00000000
v 9.999999 7.499993 -0.250000
#vw 00000001
v 3.999999 -9.000004 -8.500000
#vw 00000000
v 5.249998 2.999997 -9.250000
#vw 00000001
v -5.500001 -9.000004 -8.500000
#vw 00000000
v -4.750001 2.999997 -9.250000
#vw 00000001
v -9.000002 7.499993 -0.250000
#vw 00000000
v 3.749999 -5.500001 9.500001
#vw 00000000
v 9.999999 7.499993 -0.250000
#vw 00000001
v 8.700000 -7.499999 0.600000
#vw 00000000
v -9.000002 7.499993 -0.250000
#vw 00000000
v -10.000000 -7.499999 0.600000
#vw 00000000
v -5.500001 -9.000004 -8.500000
#vw 00000001

vt 0.667000 0.676387
vt 0.664000 0.658387
vt 0.775000 0.700387
vt 0.769000 0.658387
vt 0.880000 0.700387
vt 0.883000 0.658387
vt 0.988000 0.658387
vt 0.292600 0.676387
vt 0.292000 0.658387
vt 0.397000 0.658387
vt 0.397000 0.604387
vt 0.511000 0.658387
vt 0.517000 0.604387
vt 0.616000 0.658387
vt 0.880000 0.700387
vt 0.988000 0.658387
vt 0.987400 0.676387
vt 0.616000 0.658387
vt 0.613000 0.676387
vt 0.511000 0.658387

vn 0.979233 -0.195702 0.052942
vn 0.990212 -0.139528 0.003360
vn 0.528896 -0.209080 -0.822529
vn 0.532215 -0.178730 -0.827529
vn -0.495828 -0.133146 -0.858153
vn -0.528417 -0.126364 -0.839528
vn -0.999802 -0.019591 -0.003592
vn -0.999861 -0.016271 -0.003708
vn -0.999802 -0.019591 -0.003592
vn -0.495763 0.049326 0.867056
vn -0.457241 0.066501 0.886853
vn 0.520998 -0.071059 0.850595
vn 0.465875 0.011892 0.884771
vn 0.990212 -0.139528 0.003360
vn -0.495828 -0.133146 -0.858153
vn -0.999802 -0.019591 -0.003592
vn -0.999861 -0.016271 -0.003708
vn 0.990212 -0.139528 0.003360
vn 0.979233 -0.195702 0.052942
vn 0.520998 -0.071059 0.850595

g batch_0110
usemtl batch_0110
f 1/1/1 2/2/2 3/3/3
f 2/2/2 4/4/4 3/3/3
f 3/3/3 4/4/4 5/5/5
f 4/4/4 6/6/6 5/5/5
f 5/5/5 6/6/6 7/7/7
f 8/8/8 9/9/9 10/10/10
f 9/9/9 11/11/11 10/10/10
f 10/10/10 11/11/11 12/12/12
f 11/11/11 13/13/13 12/12/12
f 12/12/12 13/13/13 14/14/14
f 15/15/15 16/16/16 17/17/17
f 18/18/18 19/19/19 20/20/20
