# Batch 46 (tex 0)
mtllib batch_0046.mtl

v 14.900040 0.000000 -6.825001
#vw 00000000
v 16.212540 1.574999 -6.037500
#vw 00000001
v -0.000006 1.574999 -6.037501
#vw 00000001
v 16.212540 1.574999 6.037501
#vw 00000000
v -0.000006 1.574999 6.037500
#vw 00000001
v 14.900040 0.000000 6.825002
#vw 00000000
v -1.312506 0.000000 6.825001
#vw 00000001
v -1.312506 0.000000 6.825001
#vw 00000000
v 14.900040 0.000000 6.825002
#vw 00000000
v -2.625006 -1.574999 6.037500
#vw 00000001
v 13.062540 -2.099997 6.037501
#vw 00000000
v -2.625006 -1.574999 -6.037501
#vw 00000001
v 13.062540 -2.099997 -6.037500
#vw 00000000
v 14.900040 0.000000 -6.825001
#vw 00000001
v -0.000006 1.574999 -6.037501
#vw 00000000
v -1.312506 0.000000 -6.825002
#vw 00000000
v 14.900040 0.000000 -6.825001
#vw 00000000
v 14.900040 0.000000 -6.825001
#vw 00000000
v -1.312506 0.000000 -6.825002
#vw 00000001
v -2.625006 -1.574999 -6.037501
#vw 00000000

vt 0.180926 0.210587
vt 0.171476 0.226337
vt 0.171476 0.283037
vt 0.026576 0.226337
vt 0.026576 0.283037
vt 0.017126 0.210587
vt 0.017126 0.267287
vt 0.017127 0.393287
vt 0.017127 0.449987
vt 0.026577 0.409037
vt 0.026577 0.472037
vt 0.171477 0.409037
vt 0.171477 0.472037
vt 0.180927 0.449987
vt 0.171476 0.283037
vt 0.180926 0.267287
vt 0.180926 0.210587
vt 0.180927 0.449987
vt 0.180927 0.393287
vt 0.171477 0.409037

vn -0.032647 -0.018585 0.999294
vn -0.181747 -0.870207 0.457939
vn 0.000000 -0.922380 0.386283
vn -0.181747 -0.870207 -0.457939
vn 0.000000 -0.922380 -0.386283
vn -0.008553 -0.023212 -0.999694
vn 0.000000 0.127013 -0.991901
vn 0.000000 0.127013 -0.991901
vn -0.008553 -0.023212 -0.999694
vn -0.034760 0.858883 -0.510992
vn -0.067285 0.850465 -0.521711
vn -0.034760 0.858883 0.510992
vn -0.098681 0.811048 0.576596
vn -0.032647 -0.018585 0.999294
vn 0.000000 -0.922380 0.386283
vn 0.000000 0.106911 0.994269
vn -0.032647 -0.018585 0.999294
vn -0.032647 -0.018585 0.999294
vn 0.000000 0.106911 0.994269
vn -0.034760 0.858883 0.510992

g batch_0046
usemtl batch_0046
f 1/1/1 2/2/2 3/3/3
f 2/2/2 4/4/4 3/3/3
f 3/3/3 4/4/4 5/5/5
f 4/4/4 6/6/6 5/5/5
f 5/5/5 6/6/6 7/7/7
f 8/8/8 9/9/9 10/10/10
f 9/9/9 11/11/11 10/10/10
f 10/10/10 11/11/11 12/12/12
f 11/11/11 13/13/13 12/12/12
f 12/12/12 13/13/13 14/14/14
f 15/15/15 16/16/16 17/17/17
f 18/18/18 19/19/19 20/20/20
