# Batch 70 (tex 1)
mtllib batch_0070.mtl

v -5.000000 0.000000 -4.500001
#vw 00000000
v 3.999994 -0.000006 -4.000001
#vw 00000001
v -5.000000 4.000002 -2.250001
#vw 00000000
v 3.999994 3.499997 -2.000001
#vw 00000001
v -5.000000 4.000002 2.250001
#vw 00000000
v 3.999994 3.499997 2.000001
#vw 00000001
v -5.000000 0.000000 4.500001
#vw 00000000
v 3.999994 -0.000006 4.000001
#vw 00000001
v -5.000000 -3.999996 2.250001
#vw 00000000
v 3.999994 -3.500003 2.000001
#vw 00000001
v -5.000000 -3.999996 -2.250001
#vw 00000000
v 3.999994 -3.500003 -2.000001
#vw 00000001
v 3.999994 -0.000006 -4.000001
#vw 00000000
v 3.999994 -0.000006 -4.000001
#vw 00000000
v -5.000000 0.000000 -4.500001
#vw 00000000
v -5.000000 -3.999996 -2.250001
#vw 00000001

vt 0.948013 0.832166
vt 0.989960 0.837410
vt 0.948013 0.866248
vt 0.989960 0.868870
vt 0.948013 0.913439
vt 0.989960 0.910817
vt 0.948013 0.947521
vt 0.989960 0.942278
vt 0.948013 0.913439
vt 0.989960 0.910817
vt 0.948013 0.866248
vt 0.989960 0.868870
vt 0.989960 0.837410
vt 0.989960 0.837410
vt 0.948013 0.832166
vt 0.948013 0.866248

vn 0.212780 0.000001 0.977100
vn 0.007207 0.000000 0.999974
vn 0.161725 -0.856705 0.489798
vn 0.034804 -0.867587 0.496067
vn 0.174189 -0.861276 -0.477349
vn 0.025294 -0.865426 -0.500398
vn 0.247229 0.015269 -0.968837
vn -0.016558 0.005126 -0.999850
vn 0.255765 0.853840 -0.453367
vn 0.026023 0.872056 -0.488714
vn 0.246945 0.812466 0.528126
vn 0.034430 0.864729 0.501057
vn 0.007207 0.000000 0.999974
vn 0.007207 0.000000 0.999974
vn 0.212780 0.000001 0.977100
vn 0.246945 0.812466 0.528126

g batch_0070
usemtl batch_0070
f 1/1/1 2/2/2 3/3/3
f 2/2/2 4/4/4 3/3/3
f 3/3/3 4/4/4 5/5/5
f 4/4/4 6/6/6 5/5/5
f 5/5/5 6/6/6 7/7/7
f 6/6/6 8/8/8 7/7/7
f 7/7/7 8/8/8 9/9/9
f 8/8/8 10/10/10 9/9/9
f 9/9/9 10/10/10 11/11/11
f 10/10/10 12/12/12 11/11/11
f 11/11/11 12/12/12 13/13/13
f 14/14/14 15/15/15 16/16/16
