# Batch 1 (tex 5)
mtllib batch_0001.mtl

v -46.000000 3.999996 -52.000000
#vw 00000000
v -46.000000 4.000008 52.000000
#vw 00000000
v 0.000000 49.999990 -52.000010
#vw 00000000
v 0.000000 50.000010 51.999990
#vw 00000000
v 46.000000 3.999996 -52.000000
#vw 00000000
v 46.000000 4.000008 52.000000
#vw 00000000
v -42.000000 -0.000008 -52.000000
#vw 00000000
v 0.000000 49.999990 -52.000010
#vw 00000000
v 0.000000 41.999990 -52.000010
#vw 00000000
v 46.000000 3.999996 -52.000000
#vw 00000000
v 42.000000 -0.000008 -52.000000
#vw 00000000
v -46.000000 4.000008 52.000000
#vw 00000000
v 0.000000 42.000010 51.999990
#vw 00000000
v 0.000000 50.000010 51.999990
#vw 00000000
v 42.000000 0.000008 52.000000
#vw 00000000
v 46.000000 4.000008 52.000000
#vw 00000000
v -32.000000 -48.000010 -39.999990
#vw 00000000
v -32.000000 -47.999990 46.000010
#vw 00000000
v 32.000000 -48.000010 -39.999990
#vw 00000000
v 32.000000 -47.999990 46.000010
#vw 00000000
v -42.000000 -0.000008 -52.000000
#vw 00000000
v -42.000000 0.000008 52.000000
#vw 00000000
v -46.000000 3.999996 -52.000000
#vw 00000000
v -46.000000 4.000008 52.000000
#vw 00000000
v 42.000000 0.000008 52.000000
#vw 00000000
v 42.000000 -0.000008 -52.000000
#vw 00000000
v 46.000000 4.000008 52.000000
#vw 00000000
v 46.000000 3.999996 -52.000000
#vw 00000000
v 0.000000 49.999990 -52.000010
#vw 00000000
v -42.000000 -0.000008 -52.000000
#vw 00000000
v -46.000000 3.999996 -52.000000
#vw 00000000
v -46.000000 4.000008 52.000000
#vw 00000000
v -42.000000 0.000008 52.000000
#vw 00000000
v 0.000000 42.000010 51.999990
#vw 00000000
v 15.976190 111.226400 -12.291610
#vw 00000000
v 14.395360 111.226400 -12.726060
#vw 00000000
v 22.762380 127.243500 -18.277490
#vw 00000000
v 14.395360 111.226400 -12.726060
#vw 00000000
v 14.395360 127.243500 -21.191340
#vw 00000000
v 22.762380 127.243500 -18.277490
#vw 00000000
v 12.814580 111.226400 -12.291610
#vw 00000000
v 6.028334 127.243500 -18.277490
#vw 00000000
v 14.395360 111.226400 -12.726060
#vw 00000000
v 14.395360 111.226400 -12.726060
#vw 00000000
v 6.028334 127.243500 -18.277490
#vw 00000000
v 14.395360 127.243500 -21.191340
#vw 00000000
v 12.159740 111.226400 -11.242810
#vw 00000000
v 2.562597 127.243500 -11.242810
#vw 00000000
v 12.814580 111.226400 -12.291610
#vw 00000000
v 12.814580 111.226400 -12.291610
#vw 00000000
v 2.562597 127.243500 -11.242810
#vw 00000000
v 6.028334 127.243500 -18.277490
#vw 00000000
v 12.159740 111.226400 -11.242810
#vw 00000000
v 12.814580 111.226400 -10.194010
#vw 00000000
v 2.562597 127.243500 -11.242810
#vw 00000000
v 12.814580 111.226400 -10.194010
#vw 00000000
v 6.028334 127.243500 -4.208135
#vw 00000000
v 2.562597 127.243500 -11.242810
#vw 00000000
v 12.814580 111.226400 -10.194010
#vw 00000000
v 14.395360 111.226400 -9.759562
#vw 00000000
v 6.028334 127.243500 -4.208135
#vw 00000000
v 14.395360 111.226400 -9.759562
#vw 00000000
v 14.395360 127.243500 -1.294279
#vw 00000000
v 6.028334 127.243500 -4.208135
#vw 00000000
v 15.976190 111.226400 -10.194010
#vw 00000000
v 22.762380 127.243500 -4.208135
#vw 00000000
v 14.395360 111.226400 -9.759562
#vw 00000000
v 14.395360 111.226400 -9.759562
#vw 00000000
v 22.762380 127.243500 -4.208135
#vw 00000000
v 14.395360 127.243500 -1.294279
#vw 00000000
v 16.630980 111.226400 -11.242810
#vw 00000000
v 26.228180 127.243500 -11.242810
#vw 00000000
v 15.976190 111.226400 -10.194010
#vw 00000000
v 15.976190 111.226400 -10.194010
#vw 00000000
v 26.228180 127.243500 -11.242810
#vw 00000000
v 22.762380 127.243500 -4.208135
#vw 00000000
v 16.630980 111.226400 -11.242810
#vw 00000000
v 15.976190 111.226400 -12.291610
#vw 00000000
v 26.228180 127.243500 -11.242810
#vw 00000000
v 15.976190 111.226400 -12.291610
#vw 00000000
v 22.762380 127.243500 -18.277490
#vw 00000000
v 26.228180 127.243500 -11.242810
#vw 00000000
v 14.395360 132.837800 -23.140920
#vw 00000000
v 27.502080 136.765100 -19.656060
#vw 00000000
v 14.395360 127.243500 -21.191340
#vw 00000000
v 14.395360 127.243500 -21.191340
#vw 00000000
v 27.502080 136.765100 -19.656060
#vw 00000000
v 22.762380 127.243500 -18.277490
#vw 00000000
v 14.395360 132.837800 -23.140920
#vw 00000000
v 14.395360 127.243500 -21.191340
#vw 00000000
v 1.288694 136.765100 -19.656060
#vw 00000000
v 6.028334 127.243500 -18.277490
#vw 00000000
v 1.288694 136.765100 -19.656060
#vw 00000000
v 14.395360 127.243500 -21.191340
#vw 00000000
v 1.288694 136.765100 -19.656060
#vw 00000000
v 6.028334 127.243500 -18.277490
#vw 00000000
v -4.140295 136.765100 -11.242820
#vw 00000000
v 2.562597 127.243500 -11.242810
#vw 00000000
v -4.140295 136.765100 -11.242820
#vw 00000000
v 6.028334 127.243500 -18.277490
#vw 00000000
v 1.288694 136.765100 -2.829558
#vw 00000000
v -4.140295 136.765100 -11.242820
#vw 00000000
v 6.028334 127.243500 -4.208135
#vw 00000000
v 6.028334 127.243500 -4.208135
#vw 00000000
v -4.140295 136.765100 -11.242820
#vw 00000000
v 2.562597 127.243500 -11.242810
#vw 00000000
v 14.395360 132.837800 0.655294
#vw 00000000
v 1.288694 136.765100 -2.829558
#vw 00000000
v 14.395360 127.243500 -1.294279
#vw 00000000
v 14.395360 127.243500 -1.294279
#vw 00000000
v 1.288694 136.765100 -2.829558
#vw 00000000
v 6.028334 127.243500 -4.208135
#vw 00000000
v 14.395360 132.837800 0.655294
#vw 00000000
v 14.395360 127.243500 -1.294279
#vw 00000000
v 27.502080 136.765100 -2.829558
#vw 00000000
v 22.762380 127.243500 -4.208135
#vw 00000000
v 27.502080 136.765100 -2.829558
#vw 00000000
v 14.395360 127.243500 -1.294279
#vw 00000000
v 27.502080 136.765100 -2.829558
#vw 00000000
v 22.762380 127.243500 -4.208135
#vw 00000000
v 32.931010 136.765100 -11.242820
#vw 00000000
v 26.228180 127.243500 -11.242810
#vw 00000000
v 32.931010 136.765100 -11.242820
#vw 00000000
v 22.762380 127.243500 -4.208135
#vw 00000000
v 27.502080 136.765100 -19.656060
#vw 00000000
v 32.931010 136.765100 -11.242820
#vw 00000000
v 22.762380 127.243500 -18.277490
#vw 00000000
v 22.762380 127.243500 -18.277490
#vw 00000000
v 32.931010 136.765100 -11.242820
#vw 00000000
v 26.228180 127.243500 -11.242810
#vw 00000000
v 14.395360 132.837800 -23.140920
#vw 00000000
v 14.395360 136.740800 -21.681910
#vw 00000000
v 27.502080 136.765100 -19.656060
#vw 00000000
v 27.502080 136.765100 -19.656060
#vw 00000000
v 14.395360 136.740800 -21.681910
#vw 00000000
v 21.322310 142.708700 -17.495450
#vw 00000000
v 14.395360 132.837800 -23.140920
#vw 00000000
v 1.288694 136.765100 -19.656060
#vw 00000000
v 14.395360 136.740800 -21.681910
#vw 00000000
v 1.288694 136.765100 -19.656060
#vw 00000000
v 7.468466 142.708700 -17.495450
#vw 00000000
v 14.395360 136.740800 -21.681910
#vw 00000000
v -4.140295 136.765100 -11.242820
#vw 00000000
v -0.043224 145.057400 -11.242810
#vw 00000000
v 1.288694 136.765100 -19.656060
#vw 00000000
v 1.288694 136.765100 -19.656060
#vw 00000000
v -0.043224 145.057400 -11.242810
#vw 00000000
v 7.468466 142.708700 -17.495450
#vw 00000000
v -4.140295 136.765100 -11.242820
#vw 00000000
v 1.288694 136.765100 -2.829558
#vw 00000000
v -0.043224 145.057400 -11.242810
#vw 00000000
v 1.288694 136.765100 -2.829558
#vw 00000000
v 7.468466 142.708700 -4.990188
#vw 00000000
v -0.043224 145.057400 -11.242810
#vw 00000000
v 14.395360 132.837800 0.655294
#vw 00000000
v 14.395360 136.740800 -0.803709
#vw 00000000
v 1.288694 136.765100 -2.829558
#vw 00000000
v 1.288694 136.765100 -2.829558
#vw 00000000
v 14.395360 136.740800 -0.803709
#vw 00000000
v 7.468466 142.708700 -4.990188
#vw 00000000
v 14.395360 132.837800 0.655294
#vw 00000000
v 27.502080 136.765100 -2.829558
#vw 00000000
v 14.395360 136.740800 -0.803709
#vw 00000000
v 27.502080 136.765100 -2.829558
#vw 00000000
v 21.322310 142.708700 -4.990188
#vw 00000000
v 14.395360 136.740800 -0.803709
#vw 00000000
v 32.931010 136.765100 -11.242820
#vw 00000000
v 28.834000 145.057400 -11.242810
#vw 00000000
v 27.502080 136.765100 -2.829558
#vw 00000000
v 27.502080 136.765100 -2.829558
#vw 00000000
v 28.834000 145.057400 -11.242810
#vw 00000000
v 21.322310 142.708700 -4.990188
#vw 00000000
v 32.931010 136.765100 -11.242820
#vw 00000000
v 27.502080 136.765100 -19.656060
#vw 00000000
v 28.834000 145.057400 -11.242810
#vw 00000000
v 27.502080 136.765100 -19.656060
#vw 00000000
v 21.322310 142.708700 -17.495450
#vw 00000000
v 28.834000 145.057400 -11.242810
#vw 00000000
v 17.388910 106.593800 -13.228900
#vw 00000000
v 14.395360 106.593800 -14.051620
#vw 00000000
v 15.976190 111.226400 -12.291610
#vw 00000000
v 14.395360 111.226400 -12.726060
#vw 00000000
v 15.976190 111.226400 -12.291610
#vw 00000000
v 14.395360 106.593800 -14.051620
#vw 00000000
v 11.401810 106.593800 -13.228900
#vw 00000000
v 12.814580 111.226400 -12.291610
#vw 00000000
v 14.395360 106.593800 -14.051620
#vw 00000000
v 14.395360 111.226400 -12.726060
#vw 00000000
v 10.161860 106.593800 -11.242810
#vw 00000000
v 12.159740 111.226400 -11.242810
#vw 00000000
v 11.401810 106.593800 -13.228900
#vw 00000000
v 12.814580 111.226400 -12.291610
#vw 00000000
v 10.161860 106.593800 -11.242810
#vw 00000000
v 11.401810 106.593800 -9.256717
#vw 00000000
v 12.159740 111.226400 -11.242810
#vw 00000000
v 12.814580 111.226400 -10.194010
#vw 00000000
v 12.159740 111.226400 -11.242810
#vw 00000000
v 11.401810 106.593800 -9.256717
#vw 00000000
v 11.401810 106.593800 -9.256717
#vw 00000000
v 14.395360 106.593800 -8.433992
#vw 00000000
v 12.814580 111.226400 -10.194010
#vw 00000000
v 14.395360 111.226400 -9.759562
#vw 00000000
v 17.388910 106.593800 -9.256717
#vw 00000000
v 15.976190 111.226400 -10.194010
#vw 00000000
v 14.395360 106.593800 -8.433992
#vw 00000000
v 14.395360 111.226400 -9.759562
#vw 00000000
v 18.628920 106.593800 -11.242810
#vw 00000000
v 16.630980 111.226400 -11.242810
#vw 00000000
v 17.388910 106.593800 -9.256717
#vw 00000000
v 15.976190 111.226400 -10.194010
#vw 00000000
v 18.628920 106.593800 -11.242810
#vw 00000000
v 17.388910 106.593800 -13.228900
#vw 00000000
v 16.630980 111.226400 -11.242810
#vw 00000000
v 15.976190 111.226400 -12.291610
#vw 00000000
v 16.630980 111.226400 -11.242810
#vw 00000000
v 17.388910 106.593800 -13.228900
#vw 00000000
v -0.043224 145.057400 -11.242810
#vw 00000000
v 7.468466 148.060600 -11.242820
#vw 00000000
v 7.468466 142.708700 -17.495450
#vw 00000000
v 14.395360 136.740800 -21.681910
#vw 00000000
v 7.468466 142.708700 -17.495450
#vw 00000000
v 14.395360 140.668100 -11.242810
#vw 00000000
v 7.468466 148.060600 -11.242820
#vw 00000000
v 14.395360 140.668100 -11.242810
#vw 00000000
v 7.468466 142.708700 -17.495450
#vw 00000000
v 14.395360 136.740800 -21.681910
#vw 00000000
v 14.395360 140.668100 -11.242810
#vw 00000000
v 21.322310 142.708700 -17.495450
#vw 00000000
v 14.395360 140.668100 -11.242810
#vw 00000000
v 21.322310 148.060600 -11.242820
#vw 00000000
v 21.322310 142.708700 -17.495450
#vw 00000000
v 21.322310 148.060600 -11.242820
#vw 00000000
v 28.834000 145.057400 -11.242810
#vw 00000000
v 21.322310 142.708700 -17.495450
#vw 00000000
v -0.043224 145.057400 -11.242810
#vw 00000000
v 7.468466 142.708700 -4.990188
#vw 00000000
v 7.468466 148.060600 -11.242820
#vw 00000000
v 14.395360 136.740800 -0.803709
#vw 00000000
v 14.395360 140.668100 -11.242810
#vw 00000000
v 7.468466 142.708700 -4.990188
#vw 00000000
v 7.468466 142.708700 -4.990188
#vw 00000000
v 14.395360 140.668100 -11.242810
#vw 00000000
v 7.468466 148.060600 -11.242820
#vw 00000000
v 14.395360 136.740800 -0.803709
#vw 00000000
v 21.322310 142.708700 -4.990188
#vw 00000000
v 14.395360 140.668100 -11.242810
#vw 00000000
v 21.322310 142.708700 -4.990188
#vw 00000000
v 21.322310 148.060600 -11.242820
#vw 00000000
v 14.395360 140.668100 -11.242810
#vw 00000000
v 21.322310 142.708700 -4.990188
#vw 00000000
v 28.834000 145.057400 -11.242810
#vw 00000000
v 21.322310 148.060600 -11.242820
#vw 00000000
v 18.102680 28.874500 5.983653
#vw 00000000
v 18.178040 28.874500 5.983653
#vw 00000000
v 15.165930 114.759800 -11.242810
#vw 00000000
v 16.268410 114.759800 -11.242810
#vw 00000000
v 5.105211 86.758660 6.853941
#vw 00000000
v 3.524374 86.758660 6.159033
#vw 00000000
v 14.127260 100.234600 -2.721035
#vw 00000000
v 3.524374 100.234600 -7.382018
#vw 00000000
v 1.943539 86.758660 6.853941
#vw 00000000
v -7.078573 100.234600 -2.721035
#vw 00000000
v 3.524374 86.758660 6.159033
#vw 00000000
v 3.524374 100.234600 -7.382018
#vw 00000000
v 1.288755 86.758660 8.531695
#vw 00000000
v -11.470430 100.234600 8.531693
#vw 00000000
v 1.943539 86.758660 6.853941
#vw 00000000
v -7.078573 100.234600 -2.721035
#vw 00000000
v 1.288755 86.758660 8.531695
#vw 00000000
v 1.943539 86.758660 10.209390
#vw 00000000
v -11.470430 100.234600 8.531693
#vw 00000000
v -7.078573 100.234600 19.784360
#vw 00000000
v 1.943539 86.758660 10.209390
#vw 00000000
v 3.524374 86.758660 10.904290
#vw 00000000
v -7.078573 100.234600 19.784360
#vw 00000000
v 3.524374 100.234500 24.445340
#vw 00000000
v 5.105211 86.758660 10.209390
#vw 00000000
v 14.127260 100.234600 19.784360
#vw 00000000
v 3.524374 86.758660 10.904290
#vw 00000000
v 3.524374 100.234500 24.445340
#vw 00000000
v 5.759996 86.758660 8.531695
#vw 00000000
v 18.519180 100.234600 8.531693
#vw 00000000
v 5.105211 86.758660 10.209390
#vw 00000000
v 14.127260 100.234600 19.784360
#vw 00000000
v 5.759996 86.758660 8.531695
#vw 00000000
v 5.105211 86.758660 6.853941
#vw 00000000
v 18.519180 100.234600 8.531693
#vw 00000000
v 14.127260 100.234600 -2.721035
#vw 00000000
v 3.524374 111.835400 -10.500570
#vw 00000000
v 16.205080 111.835400 -4.926184
#vw 00000000
v 3.524374 100.234600 -7.382018
#vw 00000000
v 14.127260 100.234600 -2.721035
#vw 00000000
v 3.524374 111.835400 -10.500570
#vw 00000000
v 3.524374 100.234600 -7.382018
#vw 00000000
v -9.156393 111.835400 -4.926184
#vw 00000000
v -7.078573 100.234600 -2.721035
#vw 00000000
v -9.156393 111.835400 -4.926184
#vw 00000000
v -7.078573 100.234600 -2.721035
#vw 00000000
v -14.408890 111.835400 8.531691
#vw 00000000
v -11.470430 100.234600 8.531693
#vw 00000000
v -9.156393 111.835400 21.989510
#vw 00000000
v -14.408890 111.835400 8.531691
#vw 00000000
v -7.078573 100.234600 19.784360
#vw 00000000
v -11.470430 100.234600 8.531693
#vw 00000000
v 3.524374 111.835400 27.563900
#vw 00000000
v -9.156393 111.835400 21.989510
#vw 00000000
v 3.524374 100.234500 24.445340
#vw 00000000
v -7.078573 100.234600 19.784360
#vw 00000000
v 3.524374 111.835400 27.563900
#vw 00000000
v 3.524374 100.234500 24.445340
#vw 00000000
v 16.205080 111.835400 21.989510
#vw 00000000
v 14.127260 100.234600 19.784360
#vw 00000000
v 16.205080 111.835400 21.989510
#vw 00000000
v 14.127260 100.234600 19.784360
#vw 00000000
v 21.457640 111.835400 8.531691
#vw 00000000
v 18.519180 100.234600 8.531693
#vw 00000000
v 16.205080 111.835400 -4.926184
#vw 00000000
v 21.457640 111.835400 8.531691
#vw 00000000
v 14.127260 100.234600 -2.721035
#vw 00000000
v 18.519180 100.234600 8.531693
#vw 00000000
v 16.205080 111.835400 -4.926184
#vw 00000000
v 3.524374 111.835400 -10.500570
#vw 00000000
v 12.948570 120.820700 -1.470032
#vw 00000000
v 3.524374 120.820700 -5.612905
#vw 00000000
v -9.156393 111.835400 -4.926184
#vw 00000000
v -5.899817 120.820700 -1.470032
#vw 00000000
v 3.524374 111.835400 -10.500570
#vw 00000000
v 3.524374 120.820700 -5.612905
#vw 00000000
v -9.156393 111.835400 -4.926184
#vw 00000000
v -14.408890 111.835400 8.531691
#vw 00000000
v -5.899817 120.820700 -1.470032
#vw 00000000
v -9.803480 120.820700 8.531691
#vw 00000000
v -9.156393 111.835400 21.989510
#vw 00000000
v -5.899817 120.820700 18.533350
#vw 00000000
v -14.408890 111.835400 8.531691
#vw 00000000
v -9.803480 120.820700 8.531691
#vw 00000000
v -9.156393 111.835400 21.989510
#vw 00000000
v 3.524374 111.835400 27.563900
#vw 00000000
v -5.899817 120.820700 18.533350
#vw 00000000
v 3.524374 120.820700 22.676220
#vw 00000000
v 16.205080 111.835400 21.989510
#vw 00000000
v 12.948570 120.820700 18.533410
#vw 00000000
v 3.524374 111.835400 27.563900
#vw 00000000
v 3.524374 120.820700 22.676220
#vw 00000000
v 16.205080 111.835400 21.989510
#vw 00000000
v 21.457640 111.835400 8.531691
#vw 00000000
v 12.948570 120.820700 18.533410
#vw 00000000
v 16.852170 120.820700 8.531691
#vw 00000000
v 16.205080 111.835400 -4.926184
#vw 00000000
v 12.948570 120.820700 -1.470032
#vw 00000000
v 21.457640 111.835400 8.531691
#vw 00000000
v 16.852170 120.820700 8.531691
#vw 00000000
v 12.948570 120.820700 -1.470032
#vw 00000000
v 3.524374 120.820700 -5.612905
#vw 00000000
v 3.524374 125.919900 8.531691
#vw 00000000
v 3.524374 120.820700 -5.612905
#vw 00000000
v -5.899817 120.820700 -1.470032
#vw 00000000
v 3.524374 125.919900 8.531691
#vw 00000000
v -5.899817 120.820700 -1.470032
#vw 00000000
v -9.803480 120.820700 8.531691
#vw 00000000
v 3.524374 125.919900 8.531691
#vw 00000000
v -9.803480 120.820700 8.531691
#vw 00000000
v -5.899817 120.820700 18.533350
#vw 00000000
v 3.524374 125.919900 8.531691
#vw 00000000
v -5.899817 120.820700 18.533350
#vw 00000000
v 3.524374 120.820700 22.676220
#vw 00000000
v 3.524374 125.919900 8.531691
#vw 00000000
v 3.524374 120.820700 22.676220
#vw 00000000
v 12.948570 120.820700 18.533410
#vw 00000000
v 3.524374 125.919900 8.531691
#vw 00000000
v 12.948570 120.820700 18.533410
#vw 00000000
v 16.852170 120.820700 8.531691
#vw 00000000
v 3.524374 125.919900 8.531691
#vw 00000000
v 16.852170 120.820700 8.531691
#vw 00000000
v 12.948570 120.820700 -1.470032
#vw 00000000
v 3.524374 125.919900 8.531691
#vw 00000000
v 3.524374 82.126080 4.038717
#vw 00000000
v 3.524374 86.758660 6.159033
#vw 00000000
v 6.517923 82.126080 5.354696
#vw 00000000
v 5.105211 86.758660 6.853941
#vw 00000000
v 3.524374 82.126080 4.038717
#vw 00000000
v 0.530827 82.126080 5.354696
#vw 00000000
v 3.524374 86.758660 6.159033
#vw 00000000
v 1.943539 86.758660 6.853941
#vw 00000000
v 0.530827 82.126080 5.354696
#vw 00000000
v -0.709181 82.126080 8.531694
#vw 00000000
v 1.943539 86.758660 6.853941
#vw 00000000
v 1.288755 86.758660 8.531695
#vw 00000000
v 0.530827 82.126080 11.708700
#vw 00000000
v 1.943539 86.758660 10.209390
#vw 00000000
v -0.709181 82.126080 8.531694
#vw 00000000
v 1.288755 86.758660 8.531695
#vw 00000000
v 3.524374 82.126080 13.024610
#vw 00000000
v 3.524374 86.758660 10.904290
#vw 00000000
v 0.530827 82.126080 11.708700
#vw 00000000
v 1.943539 86.758660 10.209390
#vw 00000000
v 3.524374 82.126080 13.024610
#vw 00000000
v 6.517923 82.126080 11.708700
#vw 00000000
v 3.524374 86.758660 10.904290
#vw 00000000
v 5.105211 86.758660 10.209390
#vw 00000000
v 6.517923 82.126080 11.708700
#vw 00000000
v 7.757874 82.126080 8.531694
#vw 00000000
v 5.105211 86.758660 10.209390
#vw 00000000
v 5.759996 86.758660 8.531695
#vw 00000000
v 6.517923 82.126080 5.354696
#vw 00000000
v 5.105211 86.758660 6.853941
#vw 00000000
v 7.757874 82.126080 8.531694
#vw 00000000
v 5.759996 86.758660 8.531695
#vw 00000000
v 17.352210 28.874500 7.335419
#vw 00000000
v 17.427560 28.874500 7.335419
#vw 00000000
v 4.188135 90.292010 8.531695
#vw 00000000
v 5.290617 90.292010 8.531695
#vw 00000000
v 33.496940 86.758660 10.112470
#vw 00000000
v 33.931390 86.758660 8.531695
#vw 00000000
v 39.482810 102.775800 16.898720
#vw 00000000
v 33.931390 86.758660 8.531695
#vw 00000000
v 42.396670 102.775800 8.531694
#vw 00000000
v 39.482810 102.775800 16.898720
#vw 00000000
v 33.496940 86.758660 6.950857
#vw 00000000
v 39.482810 102.775800 0.164667
#vw 00000000
v 33.931390 86.758660 8.531695
#vw 00000000
v 33.931390 86.758660 8.531695
#vw 00000000
v 39.482810 102.775800 0.164667
#vw 00000000
v 42.396670 102.775800 8.531694
#vw 00000000
v 32.448140 86.758660 6.296073
#vw 00000000
v 32.448140 102.775800 -3.301069
#vw 00000000
v 33.496940 86.758660 6.950857
#vw 00000000
v 33.496940 86.758660 6.950857
#vw 00000000
v 32.448140 102.775800 -3.301069
#vw 00000000
v 39.482810 102.775800 0.164667
#vw 00000000
v 32.448140 86.758660 6.296073
#vw 00000000
v 31.399330 86.758660 6.950857
#vw 00000000
v 32.448140 102.775800 -3.301069
#vw 00000000
v 31.399330 86.758660 6.950857
#vw 00000000
v 25.413460 102.775800 0.164667
#vw 00000000
v 32.448140 102.775800 -3.301069
#vw 00000000
v 31.399330 86.758660 6.950857
#vw 00000000
v 30.964890 86.758660 8.531695
#vw 00000000
v 25.413460 102.775800 0.164667
#vw 00000000
v 30.964890 86.758660 8.531695
#vw 00000000
v 22.499600 102.775800 8.531694
#vw 00000000
v 25.413460 102.775800 0.164667
#vw 00000000
v 31.399330 86.758660 10.112470
#vw 00000000
v 25.413460 102.775800 16.898720
#vw 00000000
v 30.964890 86.758660 8.531695
#vw 00000000
v 30.964890 86.758660 8.531695
#vw 00000000
v 25.413460 102.775800 16.898720
#vw 00000000
v 22.499600 102.775800 8.531694
#vw 00000000
v 32.448140 86.758660 10.767310
#vw 00000000
v 32.448140 102.775800 20.364450
#vw 00000000
v 31.399330 86.758660 10.112470
#vw 00000000
v 31.399330 86.758660 10.112470
#vw 00000000
v 32.448140 102.775800 20.364450
#vw 00000000
v 25.413460 102.775800 16.898720
#vw 00000000
v 32.448140 86.758660 10.767310
#vw 00000000
v 33.496940 86.758660 10.112470
#vw 00000000
v 32.448140 102.775800 20.364450
#vw 00000000
v 33.496940 86.758660 10.112470
#vw 00000000
v 39.482810 102.775800 16.898720
#vw 00000000
v 32.448140 102.775800 20.364450
#vw 00000000
v 44.346240 108.370100 8.531693
#vw 00000000
v 40.861390 112.297400 21.638360
#vw 00000000
v 42.396670 102.775800 8.531694
#vw 00000000
v 42.396670 102.775800 8.531694
#vw 00000000
v 40.861390 112.297400 21.638360
#vw 00000000
v 39.482810 102.775800 16.898720
#vw 00000000
v 44.346240 108.370100 8.531693
#vw 00000000
v 42.396670 102.775800 8.531694
#vw 00000000
v 40.861390 112.297400 -4.575037
#vw 00000000
v 39.482810 102.775800 0.164667
#vw 00000000
v 40.861390 112.297400 -4.575037
#vw 00000000
v 42.396670 102.775800 8.531694
#vw 00000000
v 40.861390 112.297400 -4.575037
#vw 00000000
v 39.482810 102.775800 0.164667
#vw 00000000
v 32.448140 112.297400 -10.003960
#vw 00000000
v 32.448140 102.775800 -3.301069
#vw 00000000
v 32.448140 112.297400 -10.003960
#vw 00000000
v 39.482810 102.775800 0.164667
#vw 00000000
v 24.034880 112.297400 -4.575037
#vw 00000000
v 32.448140 112.297400 -10.003960
#vw 00000000
v 25.413460 102.775800 0.164667
#vw 00000000
v 25.413460 102.775800 0.164667
#vw 00000000
v 32.448140 112.297400 -10.003960
#vw 00000000
v 32.448140 102.775800 -3.301069
#vw 00000000
v 20.550030 108.370100 8.531693
#vw 00000000
v 24.034880 112.297400 -4.575037
#vw 00000000
v 22.499600 102.775800 8.531694
#vw 00000000
v 22.499600 102.775800 8.531694
#vw 00000000
v 24.034880 112.297400 -4.575037
#vw 00000000
v 25.413460 102.775800 0.164667
#vw 00000000
v 20.550030 108.370100 8.531693
#vw 00000000
v 22.499600 102.775800 8.531694
#vw 00000000
v 24.034880 112.297400 21.638360
#vw 00000000
v 25.413460 102.775800 16.898720
#vw 00000000
v 24.034880 112.297400 21.638360
#vw 00000000
v 22.499600 102.775800 8.531694
#vw 00000000
v 24.034880 112.297400 21.638360
#vw 00000000
v 25.413460 102.775800 16.898720
#vw 00000000
v 32.448140 112.297300 27.067350
#vw 00000000
v 32.448140 102.775800 20.364450
#vw 00000000
v 32.448140 112.297300 27.067350
#vw 00000000
v 25.413460 102.775800 16.898720
#vw 00000000
v 40.861390 112.297400 21.638360
#vw 00000000
v 32.448140 112.297300 27.067350
#vw 00000000
v 39.482810 102.775800 16.898720
#vw 00000000
v 39.482810 102.775800 16.898720
#vw 00000000
v 32.448140 112.297300 27.067350
#vw 00000000
v 32.448140 102.775800 20.364450
#vw 00000000
v 44.346240 108.370100 8.531693
#vw 00000000
v 42.887240 112.273000 8.531691
#vw 00000000
v 40.861390 112.297400 21.638360
#vw 00000000
v 40.861390 112.297400 21.638360
#vw 00000000
v 42.887240 112.273000 8.531691
#vw 00000000
v 38.700760 118.241000 15.458590
#vw 00000000
v 44.346240 108.370100 8.531693
#vw 00000000
v 40.861390 112.297400 -4.575037
#vw 00000000
v 42.887240 112.273000 8.531691
#vw 00000000
v 40.861390 112.297400 -4.575037
#vw 00000000
v 38.700760 118.241000 1.604737
#vw 00000000
v 42.887240 112.273000 8.531691
#vw 00000000
v 32.448140 112.297400 -10.003960
#vw 00000000
v 32.448140 120.589700 -5.906952
#vw 00000000
v 40.861390 112.297400 -4.575037
#vw 00000000
v 40.861390 112.297400 -4.575037
#vw 00000000
v 32.448140 120.589700 -5.906952
#vw 00000000
v 38.700760 118.241000 1.604737
#vw 00000000
v 32.448140 112.297400 -10.003960
#vw 00000000
v 24.034880 112.297400 -4.575037
#vw 00000000
v 32.448140 120.589700 -5.906952
#vw 00000000
v 24.034880 112.297400 -4.575037
#vw 00000000
v 26.195510 118.241000 1.604737
#vw 00000000
v 32.448140 120.589700 -5.906952
#vw 00000000
v 20.550030 108.370100 8.531693
#vw 00000000
v 22.009030 112.273000 8.531691
#vw 00000000
v 24.034880 112.297400 -4.575037
#vw 00000000
v 24.034880 112.297400 -4.575037
#vw 00000000
v 22.009030 112.273000 8.531691
#vw 00000000
v 26.195510 118.241000 1.604737
#vw 00000000
v 20.550030 108.370100 8.531693
#vw 00000000
v 24.034880 112.297400 21.638360
#vw 00000000
v 22.009030 112.273000 8.531691
#vw 00000000
v 24.034880 112.297400 21.638360
#vw 00000000
v 26.195510 118.241000 15.458590
#vw 00000000
v 22.009030 112.273000 8.531691
#vw 00000000
v 32.448140 112.297300 27.067350
#vw 00000000
v 32.448140 120.589700 22.970270
#vw 00000000
v 24.034880 112.297400 21.638360
#vw 00000000
v 24.034880 112.297400 21.638360
#vw 00000000
v 32.448140 120.589700 22.970270
#vw 00000000
v 26.195510 118.241000 15.458590
#vw 00000000
v 32.448140 112.297300 27.067350
#vw 00000000
v 40.861390 112.297400 21.638360
#vw 00000000
v 32.448140 120.589700 22.970270
#vw 00000000
v 40.861390 112.297400 21.638360
#vw 00000000
v 38.700760 118.241000 15.458590
#vw 00000000
v 32.448140 120.589700 22.970270
#vw 00000000
v 34.434230 82.126080 11.525240
#vw 00000000
v 35.256950 82.126080 8.531694
#vw 00000000
v 33.496940 86.758660 10.112470
#vw 00000000
v 33.931390 86.758660 8.531695
#vw 00000000
v 34.434230 82.126080 5.538147
#vw 00000000
v 33.496940 86.758660 6.950857
#vw 00000000
v 35.256950 82.126080 8.531694
#vw 00000000
v 33.931390 86.758660 8.531695
#vw 00000000
v 32.448140 82.126080 4.298138
#vw 00000000
v 32.448140 86.758660 6.296073
#vw 00000000
v 34.434230 82.126080 5.538147
#vw 00000000
v 33.496940 86.758660 6.950857
#vw 00000000
v 32.448140 82.126080 4.298138
#vw 00000000
v 30.462050 82.126080 5.538147
#vw 00000000
v 32.448140 86.758660 6.296073
#vw 00000000
v 31.399330 86.758660 6.950857
#vw 00000000
v 32.448140 86.758660 6.296073
#vw 00000000
v 30.462050 82.126080 5.538147
#vw 00000000
v 30.462050 82.126080 5.538147
#vw 00000000
v 29.639320 82.126080 8.531694
#vw 00000000
v 31.399330 86.758660 6.950857
#vw 00000000
v 30.964890 86.758660 8.531695
#vw 00000000
v 31.399330 86.758660 6.950857
#vw 00000000
v 29.639320 82.126080 8.531694
#vw 00000000
v 30.462050 82.126080 11.525240
#vw 00000000
v 31.399330 86.758660 10.112470
#vw 00000000
v 29.639320 82.126080 8.531694
#vw 00000000
v 30.964890 86.758660 8.531695
#vw 00000000
v 32.448140 82.126080 12.765190
#vw 00000000
v 32.448140 86.758660 10.767310
#vw 00000000
v 30.462050 82.126080 11.525240
#vw 00000000
v 31.399330 86.758660 10.112470
#vw 00000000
v 32.448140 82.126080 12.765190
#vw 00000000
v 34.434230 82.126080 11.525240
#vw 00000000
v 32.448140 86.758660 10.767310
#vw 00000000
v 33.496940 86.758660 10.112470
#vw 00000000
v 32.448140 86.758660 10.767310
#vw 00000000
v 34.434230 82.126080 11.525240
#vw 00000000
v 32.448140 120.589700 -5.906952
#vw 00000000
v 32.448140 123.592900 1.604739
#vw 00000000
v 38.700760 118.241000 1.604737
#vw 00000000
v 42.887240 112.273000 8.531691
#vw 00000000
v 38.700760 118.241000 1.604737
#vw 00000000
v 32.448140 116.200400 8.531693
#vw 00000000
v 32.448140 123.592900 1.604739
#vw 00000000
v 32.448140 116.200400 8.531693
#vw 00000000
v 38.700760 118.241000 1.604737
#vw 00000000
v 42.887240 112.273000 8.531691
#vw 00000000
v 32.448140 116.200400 8.531693
#vw 00000000
v 38.700760 118.241000 15.458590
#vw 00000000
v 32.448140 116.200400 8.531693
#vw 00000000
v 32.448140 123.592900 15.458580
#vw 00000000
v 38.700760 118.241000 15.458590
#vw 00000000
v 32.448140 123.592900 15.458580
#vw 00000000
v 32.448140 120.589700 22.970270
#vw 00000000
v 38.700760 118.241000 15.458590
#vw 00000000
v 32.448140 120.589700 -5.906952
#vw 00000000
v 26.195510 118.241000 1.604737
#vw 00000000
v 32.448140 123.592900 1.604739
#vw 00000000
v 22.009030 112.273000 8.531691
#vw 00000000
v 32.448140 116.200400 8.531693
#vw 00000000
v 26.195510 118.241000 1.604737
#vw 00000000
v 26.195510 118.241000 1.604737
#vw 00000000
v 32.448140 116.200400 8.531693
#vw 00000000
v 32.448140 123.592900 1.604739
#vw 00000000
v 22.009030 112.273000 8.531691
#vw 00000000
v 26.195510 118.241000 15.458590
#vw 00000000
v 32.448140 116.200400 8.531693
#vw 00000000
v 26.195510 118.241000 15.458590
#vw 00000000
v 32.448140 123.592900 15.458580
#vw 00000000
v 32.448140 116.200400 8.531693
#vw 00000000
v 26.195510 118.241000 15.458590
#vw 00000000
v 32.448140 120.589700 22.970270
#vw 00000000
v 32.448140 123.592900 15.458580
#vw 00000000
v 19.284070 28.874500 7.388122
#vw 00000000
v 19.284070 28.874500 7.463481
#vw 00000000
v 32.448140 90.292010 9.302205
#vw 00000000
v 32.448140 90.292010 10.404690
#vw 00000000
v 23.197140 111.019100 24.060360
#vw 00000000
v 21.616300 111.019100 23.365450
#vw 00000000
v 32.219250 124.495000 14.485380
#vw 00000000
v 21.616300 124.495000 9.824401
#vw 00000000
v 20.035460 111.019100 24.060360
#vw 00000000
v 11.013410 124.495000 14.485380
#vw 00000000
v 21.616300 111.019100 23.365450
#vw 00000000
v 21.616300 124.495000 9.824401
#vw 00000000
v 19.380680 111.019100 25.738110
#vw 00000000
v 6.621498 124.495000 25.738110
#vw 00000000
v 20.035460 111.019100 24.060360
#vw 00000000
v 11.013410 124.495000 14.485380
#vw 00000000
v 19.380680 111.019100 25.738110
#vw 00000000
v 20.035460 111.019100 27.415810
#vw 00000000
v 6.621498 124.495000 25.738110
#vw 00000000
v 11.013410 124.495000 36.990780
#vw 00000000
v 20.035460 111.019100 27.415810
#vw 00000000
v 21.616300 111.019100 28.110710
#vw 00000000
v 11.013410 124.495000 36.990780
#vw 00000000
v 21.616300 124.495000 41.651760
#vw 00000000
v 23.197140 111.019100 27.415810
#vw 00000000
v 32.219250 124.495000 36.990780
#vw 00000000
v 21.616300 111.019100 28.110710
#vw 00000000
v 21.616300 124.495000 41.651760
#vw 00000000
v 23.851920 111.019100 25.738110
#vw 00000000
v 36.611100 124.495000 25.738110
#vw 00000000
v 23.197140 111.019100 27.415810
#vw 00000000
v 32.219250 124.495000 36.990780
#vw 00000000
v 23.851920 111.019100 25.738110
#vw 00000000
v 23.197140 111.019100 24.060360
#vw 00000000
v 36.611100 124.495000 25.738110
#vw 00000000
v 32.219250 124.495000 14.485380
#vw 00000000
v 21.616300 136.095800 6.705843
#vw 00000000
v 34.297070 136.095800 12.280230
#vw 00000000
v 21.616300 124.495000 9.824401
#vw 00000000
v 32.219250 124.495000 14.485380
#vw 00000000
v 21.616300 136.095800 6.705843
#vw 00000000
v 21.616300 124.495000 9.824401
#vw 00000000
v 8.935591 136.095800 12.280230
#vw 00000000
v 11.013410 124.495000 14.485380
#vw 00000000
v 8.935591 136.095800 12.280230
#vw 00000000
v 11.013410 124.495000 14.485380
#vw 00000000
v 3.683033 136.095800 25.738110
#vw 00000000
v 6.621498 124.495000 25.738110
#vw 00000000
v 8.935591 136.095800 39.195920
#vw 00000000
v 3.683033 136.095800 25.738110
#vw 00000000
v 11.013410 124.495000 36.990780
#vw 00000000
v 6.621498 124.495000 25.738110
#vw 00000000
v 21.616300 136.095800 44.770310
#vw 00000000
v 8.935591 136.095800 39.195920
#vw 00000000
v 21.616300 124.495000 41.651760
#vw 00000000
v 11.013410 124.495000 36.990780
#vw 00000000
v 21.616300 136.095800 44.770310
#vw 00000000
v 21.616300 124.495000 41.651760
#vw 00000000
v 34.297070 136.095800 39.195920
#vw 00000000
v 32.219250 124.495000 36.990780
#vw 00000000
v 34.297070 136.095800 39.195920
#vw 00000000
v 32.219250 124.495000 36.990780
#vw 00000000
v 39.549560 136.095800 25.738110
#vw 00000000
v 36.611100 124.495000 25.738110
#vw 00000000
v 34.297070 136.095800 12.280230
#vw 00000000
v 39.549560 136.095800 25.738110
#vw 00000000
v 32.219250 124.495000 14.485380
#vw 00000000
v 36.611100 124.495000 25.738110
#vw 00000000
v 34.297070 136.095800 12.280230
#vw 00000000
v 21.616300 136.095800 6.705843
#vw 00000000
v 31.040490 145.081200 15.736390
#vw 00000000
v 21.616300 145.081200 11.593520
#vw 00000000
v 8.935591 136.095800 12.280230
#vw 00000000
v 12.192100 145.081200 15.736390
#vw 00000000
v 21.616300 136.095800 6.705843
#vw 00000000
v 21.616300 145.081200 11.593520
#vw 00000000
v 8.935591 136.095800 12.280230
#vw 00000000
v 3.683033 136.095800 25.738110
#vw 00000000
v 12.192100 145.081200 15.736390
#vw 00000000
v 8.288504 145.081200 25.738110
#vw 00000000
v 8.935591 136.095800 39.195920
#vw 00000000
v 12.192100 145.081200 35.739770
#vw 00000000
v 3.683033 136.095800 25.738110
#vw 00000000
v 8.288504 145.081200 25.738110
#vw 00000000
v 8.935591 136.095800 39.195920
#vw 00000000
v 21.616300 136.095800 44.770310
#vw 00000000
v 12.192100 145.081200 35.739770
#vw 00000000
v 21.616300 145.081200 39.882640
#vw 00000000
v 34.297070 136.095800 39.195920
#vw 00000000
v 31.040490 145.081200 35.739830
#vw 00000000
v 21.616300 136.095800 44.770310
#vw 00000000
v 21.616300 145.081200 39.882640
#vw 00000000
v 34.297070 136.095800 39.195920
#vw 00000000
v 39.549560 136.095800 25.738110
#vw 00000000
v 31.040490 145.081200 35.739830
#vw 00000000
v 34.944150 145.081200 25.738110
#vw 00000000
v 34.297070 136.095800 12.280230
#vw 00000000
v 31.040490 145.081200 15.736390
#vw 00000000
v 39.549560 136.095800 25.738110
#vw 00000000
v 34.944150 145.081200 25.738110
#vw 00000000
v 31.040490 145.081200 15.736390
#vw 00000000
v 21.616300 145.081200 11.593520
#vw 00000000
v 21.616300 150.180400 25.738110
#vw 00000000
v 21.616300 145.081200 11.593520
#vw 00000000
v 12.192100 145.081200 15.736390
#vw 00000000
v 21.616300 150.180400 25.738110
#vw 00000000
v 12.192100 145.081200 15.736390
#vw 00000000
v 8.288504 145.081200 25.738110
#vw 00000000
v 21.616300 150.180400 25.738110
#vw 00000000
v 8.288504 145.081200 25.738110
#vw 00000000
v 12.192100 145.081200 35.739770
#vw 00000000
v 21.616300 150.180400 25.738110
#vw 00000000
v 12.192100 145.081200 35.739770
#vw 00000000
v 21.616300 145.081200 39.882640
#vw 00000000
v 21.616300 150.180400 25.738110
#vw 00000000
v 21.616300 145.081200 39.882640
#vw 00000000
v 31.040490 145.081200 35.739830
#vw 00000000
v 21.616300 150.180400 25.738110
#vw 00000000
v 31.040490 145.081200 35.739830
#vw 00000000
v 34.944150 145.081200 25.738110
#vw 00000000
v 21.616300 150.180400 25.738110
#vw 00000000
v 34.944150 145.081200 25.738110
#vw 00000000
v 31.040490 145.081200 15.736390
#vw 00000000
v 21.616300 150.180400 25.738110
#vw 00000000
v 21.616300 106.386500 21.245130
#vw 00000000
v 21.616300 111.019100 23.365450
#vw 00000000
v 24.609850 106.386500 22.561110
#vw 00000000
v 23.197140 111.019100 24.060360
#vw 00000000
v 21.616300 106.386500 21.245130
#vw 00000000
v 18.622750 106.386500 22.561110
#vw 00000000
v 21.616300 111.019100 23.365450
#vw 00000000
v 20.035460 111.019100 24.060360
#vw 00000000
v 18.622750 106.386500 22.561110
#vw 00000000
v 17.382800 106.386500 25.738110
#vw 00000000
v 20.035460 111.019100 24.060360
#vw 00000000
v 19.380680 111.019100 25.738110
#vw 00000000
v 18.622750 106.386500 28.915110
#vw 00000000
v 20.035460 111.019100 27.415810
#vw 00000000
v 17.382800 106.386500 25.738110
#vw 00000000
v 19.380680 111.019100 25.738110
#vw 00000000
v 21.616300 106.386500 30.231030
#vw 00000000
v 21.616300 111.019100 28.110710
#vw 00000000
v 18.622750 106.386500 28.915110
#vw 00000000
v 20.035460 111.019100 27.415810
#vw 00000000
v 21.616300 106.386500 30.231030
#vw 00000000
v 24.609850 106.386500 28.915110
#vw 00000000
v 21.616300 111.019100 28.110710
#vw 00000000
v 23.197140 111.019100 27.415810
#vw 00000000
v 24.609850 106.386500 28.915110
#vw 00000000
v 25.849860 106.386500 25.738110
#vw 00000000
v 23.197140 111.019100 27.415810
#vw 00000000
v 23.851920 111.019100 25.738110
#vw 00000000
v 24.609850 106.386500 22.561110
#vw 00000000
v 23.197140 111.019100 24.060360
#vw 00000000
v 25.849860 106.386500 25.738110
#vw 00000000
v 23.851920 111.019100 25.738110
#vw 00000000
v 18.588980 28.874500 8.511673
#vw 00000000
v 18.664340 28.874500 8.511673
#vw 00000000
v 22.280120 114.552500 25.738110
#vw 00000000
v 23.382600 114.552500 25.738110
#vw 00000000

vt 0.995000 0.505000
vt 0.880000 0.505000
vt 0.995000 0.745000
vt 0.880000 0.745000
vt 0.995000 0.505000
vt 0.880000 0.505000
vt 0.127500 0.502500
vt 0.247500 0.547500
vt 0.247500 0.502500
vt 0.127500 0.547500
vt 0.127500 0.502500
vt 0.127500 0.547500
vt 0.247500 0.502500
vt 0.247500 0.547500
vt 0.127500 0.502500
vt 0.127500 0.547500
vt 0.380000 0.762500
vt 0.380000 0.995000
vt 0.495000 0.762500
vt 0.495000 0.995000
vt 0.247500 0.627500
vt 0.127500 0.627500
vt 0.247500 0.672500
vt 0.127500 0.672500
vt 0.127500 0.627500
vt 0.247500 0.627500
vt 0.127500 0.672500
vt 0.247500 0.672500
vt 0.247500 0.547500
vt 0.127500 0.502500
vt 0.127500 0.547500
vt 0.127500 0.547500
vt 0.127500 0.502500
vt 0.247500 0.502500
vt 0.481986 0.726039
vt 0.495504 0.727574
vt 0.483289 0.683492
vt 0.495504 0.727574
vt 0.488299 0.722186
vt 0.483289 0.683492
vt 0.493533 0.729109
vt 0.462317 0.730182
vt 0.495504 0.727574
vt 0.495504 0.727574
vt 0.462317 0.730182
vt 0.488299 0.722186
vt 0.491052 0.730255
vt 0.456464 0.734739
vt 0.493533 0.729109
vt 0.493533 0.729109
vt 0.456464 0.734739
vt 0.462317 0.730182
vt 0.491052 0.730255
vt 0.493533 0.729109
vt 0.456464 0.734739
vt 0.493533 0.729109
vt 0.462317 0.730182
vt 0.456464 0.734739
vt 0.493533 0.729109
vt 0.495504 0.727574
vt 0.462317 0.730182
vt 0.495504 0.727574
vt 0.488299 0.722186
vt 0.462317 0.730182
vt 0.481986 0.726039
vt 0.483289 0.683492
vt 0.495504 0.727574
vt 0.495504 0.727574
vt 0.483289 0.683492
vt 0.488299 0.722186
vt 0.484194 0.723554
vt 0.489142 0.678984
vt 0.481986 0.726039
vt 0.481986 0.726039
vt 0.489142 0.678984
vt 0.483289 0.683492
vt 0.484194 0.723554
vt 0.481986 0.726039
vt 0.489142 0.678984
vt 0.481986 0.726039
vt 0.483289 0.683492
vt 0.489142 0.678984
vt 0.485781 0.679057
vt 0.484938 0.657515
vt 0.488299 0.722186
vt 0.488299 0.722186
vt 0.484938 0.657515
vt 0.483289 0.683492
vt 0.485781 0.679057
vt 0.488299 0.722186
vt 0.452086 0.682956
vt 0.462317 0.730182
vt 0.452086 0.682956
vt 0.488299 0.722186
vt 0.452086 0.682956
vt 0.462317 0.730182
vt 0.442547 0.687903
vt 0.456464 0.734739
vt 0.442547 0.687903
vt 0.462317 0.730182
vt 0.452086 0.682956
vt 0.442547 0.687903
vt 0.462317 0.730182
vt 0.462317 0.730182
vt 0.442547 0.687903
vt 0.456464 0.734739
vt 0.485781 0.679057
vt 0.452086 0.682956
vt 0.488299 0.722186
vt 0.488299 0.722186
vt 0.452086 0.682956
vt 0.462317 0.730182
vt 0.485781 0.679057
vt 0.488299 0.722186
vt 0.484938 0.657515
vt 0.483289 0.683492
vt 0.484938 0.657515
vt 0.488299 0.722186
vt 0.484938 0.657515
vt 0.483289 0.683492
vt 0.493669 0.648255
vt 0.489142 0.678984
vt 0.493669 0.648255
vt 0.483289 0.683492
vt 0.484938 0.657515
vt 0.493669 0.648255
vt 0.483289 0.683492
vt 0.483289 0.683492
vt 0.493669 0.648255
vt 0.489142 0.678984
vt 0.485781 0.679057
vt 0.468518 0.670284
vt 0.484938 0.657515
vt 0.484938 0.657515
vt 0.468518 0.670284
vt 0.490023 0.650181
vt 0.485781 0.679057
vt 0.452086 0.682956
vt 0.468518 0.670284
vt 0.452086 0.682956
vt 0.457158 0.663608
vt 0.468518 0.670284
vt 0.442547 0.687903
vt 0.444025 0.662998
vt 0.452086 0.682956
vt 0.452086 0.682956
vt 0.444025 0.662998
vt 0.457158 0.663608
vt 0.442547 0.687903
vt 0.452086 0.682956
vt 0.444025 0.662998
vt 0.452086 0.682956
vt 0.457158 0.663608
vt 0.444025 0.662998
vt 0.485781 0.679057
vt 0.468518 0.670284
vt 0.452086 0.682956
vt 0.452086 0.682956
vt 0.468518 0.670284
vt 0.457158 0.663608
vt 0.485781 0.679057
vt 0.484938 0.657515
vt 0.468518 0.670284
vt 0.484938 0.657515
vt 0.490023 0.650181
vt 0.468518 0.670284
vt 0.493669 0.648255
vt 0.483896 0.632123
vt 0.484938 0.657515
vt 0.484938 0.657515
vt 0.483896 0.632123
vt 0.490023 0.650181
vt 0.493669 0.648255
vt 0.484938 0.657515
vt 0.483896 0.632123
vt 0.484938 0.657515
vt 0.490023 0.650181
vt 0.483896 0.632123
vt 0.485844 0.735055
vt 0.482098 0.737979
vt 0.481986 0.726039
vt 0.495504 0.727574
vt 0.481986 0.726039
vt 0.482098 0.737979
vt 0.493903 0.740879
vt 0.493533 0.729109
vt 0.482098 0.737979
vt 0.495504 0.727574
vt 0.489550 0.744681
vt 0.491052 0.730255
vt 0.493903 0.740879
vt 0.493533 0.729109
vt 0.489550 0.744681
vt 0.493903 0.740879
vt 0.491052 0.730255
vt 0.493533 0.729109
vt 0.491052 0.730255
vt 0.493903 0.740879
vt 0.493903 0.740879
vt 0.482098 0.737979
vt 0.493533 0.729109
vt 0.495504 0.727574
vt 0.485844 0.735055
vt 0.481986 0.726039
vt 0.482098 0.737979
vt 0.495504 0.727574
vt 0.490358 0.732010
vt 0.484194 0.723554
vt 0.485844 0.735055
vt 0.481986 0.726039
vt 0.490358 0.732010
vt 0.485844 0.735055
vt 0.484194 0.723554
vt 0.481986 0.726039
vt 0.484194 0.723554
vt 0.485844 0.735055
vt 0.444025 0.662998
vt 0.452917 0.647549
vt 0.457158 0.663608
vt 0.468518 0.670284
vt 0.457158 0.663608
vt 0.466138 0.658417
vt 0.452917 0.647549
vt 0.466138 0.658417
vt 0.457158 0.663608
vt 0.468518 0.670284
vt 0.466138 0.658417
vt 0.490023 0.650181
vt 0.466138 0.658417
vt 0.487603 0.632733
vt 0.490023 0.650181
vt 0.487603 0.632733
vt 0.483896 0.632123
vt 0.490023 0.650181
vt 0.444025 0.662998
vt 0.457158 0.663608
vt 0.452917 0.647549
vt 0.468518 0.670284
vt 0.466138 0.658417
vt 0.457158 0.663608
vt 0.457158 0.663608
vt 0.466138 0.658417
vt 0.452917 0.647549
vt 0.468518 0.670284
vt 0.490023 0.650181
vt 0.466138 0.658417
vt 0.490023 0.650181
vt 0.487603 0.632733
vt 0.466138 0.658417
vt 0.490023 0.650181
vt 0.483896 0.632123
vt 0.487603 0.632733
vt 0.496683 0.749360
vt 0.498109 0.749360
vt 0.496683 0.505700
vt 0.498109 0.505700
vt 0.384000 0.607389
vt 0.377031 0.607389
vt 0.384000 0.568010
vt 0.377031 0.568010
vt 0.428051 0.607389
vt 0.428051 0.568010
vt 0.435033 0.607389
vt 0.435033 0.568010
vt 0.420536 0.607389
vt 0.420536 0.568010
vt 0.428051 0.607389
vt 0.428051 0.568010
vt 0.420536 0.607389
vt 0.413008 0.607389
vt 0.420536 0.568010
vt 0.413008 0.568010
vt 0.413008 0.607389
vt 0.406026 0.607389
vt 0.413008 0.568010
vt 0.406026 0.568010
vt 0.399056 0.607389
vt 0.399056 0.568010
vt 0.406026 0.607389
vt 0.406026 0.568010
vt 0.391528 0.607389
vt 0.391528 0.568010
vt 0.399056 0.607389
vt 0.399056 0.568010
vt 0.391528 0.607389
vt 0.384000 0.607389
vt 0.391528 0.568010
vt 0.384000 0.568010
vt 0.377031 0.534114
vt 0.384000 0.534114
vt 0.377031 0.568010
vt 0.384000 0.568010
vt 0.435033 0.534114
vt 0.435033 0.568010
vt 0.428051 0.534114
vt 0.428051 0.568010
vt 0.428051 0.534114
vt 0.428051 0.568010
vt 0.420536 0.534114
vt 0.420536 0.568010
vt 0.413008 0.534114
vt 0.420536 0.534114
vt 0.413008 0.568010
vt 0.420536 0.568010
vt 0.406026 0.534114
vt 0.413008 0.534114
vt 0.406026 0.568010
vt 0.413008 0.568010
vt 0.406026 0.534114
vt 0.406026 0.568010
vt 0.399056 0.534114
vt 0.399056 0.568010
vt 0.399056 0.534114
vt 0.399056 0.568010
vt 0.391528 0.534114
vt 0.391528 0.568010
vt 0.384000 0.534114
vt 0.391528 0.534114
vt 0.384000 0.568010
vt 0.391528 0.568010
vt 0.384000 0.534114
vt 0.377031 0.534114
vt 0.384000 0.507845
vt 0.377031 0.507845
vt 0.428051 0.534114
vt 0.428051 0.507845
vt 0.435033 0.534114
vt 0.435033 0.507845
vt 0.428051 0.534114
vt 0.420536 0.534114
vt 0.428051 0.507845
vt 0.420536 0.507845
vt 0.413008 0.534114
vt 0.413008 0.507845
vt 0.420536 0.534114
vt 0.420536 0.507845
vt 0.413008 0.534114
vt 0.406026 0.534114
vt 0.413008 0.507845
vt 0.406026 0.507845
vt 0.399056 0.534114
vt 0.399056 0.507845
vt 0.406026 0.534114
vt 0.406026 0.507845
vt 0.399056 0.534114
vt 0.391528 0.534114
vt 0.399056 0.507845
vt 0.391528 0.507845
vt 0.384000 0.534114
vt 0.384000 0.507845
vt 0.391528 0.534114
vt 0.391528 0.507845
vt 0.388168 0.596180
vt 0.382847 0.591355
vt 0.382847 0.607852
vt 0.382847 0.591355
vt 0.377539 0.596180
vt 0.382847 0.607852
vt 0.377539 0.596180
vt 0.375332 0.607852
vt 0.382847 0.607852
vt 0.375332 0.607852
vt 0.377539 0.619525
vt 0.382847 0.607852
vt 0.377539 0.619525
vt 0.382847 0.624350
vt 0.382847 0.607852
vt 0.382847 0.624350
vt 0.388168 0.619525
vt 0.382847 0.607852
vt 0.388168 0.619525
vt 0.390375 0.607852
vt 0.382847 0.607852
vt 0.390375 0.607852
vt 0.388168 0.596180
vt 0.382847 0.607852
vt 0.377031 0.620938
vt 0.377031 0.607389
vt 0.384000 0.620938
vt 0.384000 0.607389
vt 0.435033 0.620938
vt 0.428051 0.620938
vt 0.435033 0.607389
vt 0.428051 0.607389
vt 0.428051 0.620938
vt 0.420536 0.620938
vt 0.428051 0.607389
vt 0.420536 0.607389
vt 0.413008 0.620938
vt 0.413008 0.607389
vt 0.420536 0.620938
vt 0.420536 0.607389
vt 0.406026 0.620938
vt 0.406026 0.607389
vt 0.413008 0.620938
vt 0.413008 0.607389
vt 0.406026 0.620938
vt 0.399056 0.620938
vt 0.406026 0.607389
vt 0.399056 0.607389
vt 0.399056 0.620938
vt 0.391528 0.620938
vt 0.399056 0.607389
vt 0.391528 0.607389
vt 0.384000 0.620938
vt 0.384000 0.607389
vt 0.391528 0.620938
vt 0.391528 0.607389
vt 0.497402 0.749360
vt 0.497910 0.749360
vt 0.497402 0.505700
vt 0.497910 0.505700
vt 0.481205 0.601346
vt 0.479221 0.602881
vt 0.482495 0.558823
vt 0.479221 0.602881
vt 0.472015 0.566938
vt 0.482495 0.558823
vt 0.477249 0.604416
vt 0.461524 0.575053
vt 0.479221 0.602881
vt 0.479221 0.602881
vt 0.461524 0.575053
vt 0.472015 0.566938
vt 0.474769 0.605562
vt 0.455682 0.579610
vt 0.477249 0.604416
vt 0.477249 0.604416
vt 0.455682 0.579610
vt 0.461524 0.575053
vt 0.474769 0.605562
vt 0.477249 0.604416
vt 0.455682 0.579610
vt 0.477249 0.604416
vt 0.461524 0.575053
vt 0.455682 0.579610
vt 0.477249 0.604416
vt 0.479221 0.602881
vt 0.461524 0.575053
vt 0.479221 0.602881
vt 0.472015 0.566938
vt 0.461524 0.575053
vt 0.481205 0.601346
vt 0.482495 0.558823
vt 0.479221 0.602881
vt 0.479221 0.602881
vt 0.482495 0.558823
vt 0.472015 0.566938
vt 0.483413 0.598860
vt 0.488361 0.554315
vt 0.481205 0.601346
vt 0.481205 0.601346
vt 0.488361 0.554315
vt 0.482495 0.558823
vt 0.483413 0.598860
vt 0.481205 0.601346
vt 0.488361 0.554315
vt 0.481205 0.601346
vt 0.482495 0.558823
vt 0.488361 0.554315
vt 0.469498 0.554364
vt 0.484157 0.532847
vt 0.472015 0.566938
vt 0.472015 0.566938
vt 0.484157 0.532847
vt 0.482495 0.558823
vt 0.469498 0.554364
vt 0.472015 0.566938
vt 0.451305 0.558287
vt 0.461524 0.575053
vt 0.451305 0.558287
vt 0.472015 0.566938
vt 0.451305 0.558287
vt 0.461524 0.575053
vt 0.441706 0.563210
vt 0.455682 0.579610
vt 0.441706 0.563210
vt 0.461524 0.575053
vt 0.451305 0.558287
vt 0.441706 0.563210
vt 0.461524 0.575053
vt 0.461524 0.575053
vt 0.441706 0.563210
vt 0.455682 0.579610
vt 0.469498 0.554364
vt 0.451305 0.558287
vt 0.472015 0.566938
vt 0.472015 0.566938
vt 0.451305 0.558287
vt 0.461524 0.575053
vt 0.469498 0.554364
vt 0.472015 0.566938
vt 0.484157 0.532847
vt 0.482495 0.558823
vt 0.484157 0.532847
vt 0.472015 0.566938
vt 0.484157 0.532847
vt 0.482495 0.558823
vt 0.492888 0.523587
vt 0.488361 0.554315
vt 0.492888 0.523587
vt 0.482495 0.558823
vt 0.484157 0.532847
vt 0.492888 0.523587
vt 0.482495 0.558823
vt 0.482495 0.558823
vt 0.492888 0.523587
vt 0.488361 0.554315
vt 0.469498 0.554364
vt 0.467737 0.545615
vt 0.484157 0.532847
vt 0.484157 0.532847
vt 0.467737 0.545615
vt 0.473727 0.525487
vt 0.469498 0.554364
vt 0.451305 0.558287
vt 0.467737 0.545615
vt 0.451305 0.558287
vt 0.456377 0.538939
vt 0.467737 0.545615
vt 0.441706 0.563210
vt 0.443243 0.538330
vt 0.451305 0.558287
vt 0.451305 0.558287
vt 0.443243 0.538330
vt 0.456377 0.538939
vt 0.441706 0.563210
vt 0.451305 0.558287
vt 0.443243 0.538330
vt 0.451305 0.558287
vt 0.456377 0.538939
vt 0.443243 0.538330
vt 0.469498 0.554364
vt 0.467737 0.545615
vt 0.451305 0.558287
vt 0.451305 0.558287
vt 0.467737 0.545615
vt 0.456377 0.538939
vt 0.469498 0.554364
vt 0.484157 0.532847
vt 0.467737 0.545615
vt 0.484157 0.532847
vt 0.473727 0.525487
vt 0.467737 0.545615
vt 0.492888 0.523587
vt 0.483115 0.507455
vt 0.484157 0.532847
vt 0.484157 0.532847
vt 0.483115 0.507455
vt 0.473727 0.525487
vt 0.492888 0.523587
vt 0.484157 0.532847
vt 0.483115 0.507455
vt 0.484157 0.532847
vt 0.473727 0.525487
vt 0.483115 0.507455
vt 0.485062 0.610387
vt 0.481305 0.613287
vt 0.481205 0.601346
vt 0.479221 0.602881
vt 0.477559 0.616186
vt 0.477249 0.604416
vt 0.481305 0.613287
vt 0.479221 0.602881
vt 0.473206 0.620012
vt 0.474769 0.605562
vt 0.477559 0.616186
vt 0.477249 0.604416
vt 0.473206 0.620012
vt 0.477559 0.616186
vt 0.474769 0.605562
vt 0.477249 0.604416
vt 0.474769 0.605562
vt 0.477559 0.616186
vt 0.477559 0.616186
vt 0.481305 0.613287
vt 0.477249 0.604416
vt 0.479221 0.602881
vt 0.477249 0.604416
vt 0.481305 0.613287
vt 0.485062 0.610387
vt 0.481205 0.601346
vt 0.481305 0.613287
vt 0.479221 0.602881
vt 0.489576 0.607341
vt 0.483413 0.598860
vt 0.485062 0.610387
vt 0.481205 0.601346
vt 0.489576 0.607341
vt 0.485062 0.610387
vt 0.483413 0.598860
vt 0.481205 0.601346
vt 0.483413 0.598860
vt 0.485062 0.610387
vt 0.443243 0.538330
vt 0.452123 0.522880
vt 0.456377 0.538939
vt 0.467737 0.545615
vt 0.456377 0.538939
vt 0.465356 0.533749
vt 0.452123 0.522880
vt 0.465356 0.533749
vt 0.456377 0.538939
vt 0.467737 0.545615
vt 0.465356 0.533749
vt 0.473727 0.525487
vt 0.465356 0.533749
vt 0.471259 0.508064
vt 0.473727 0.525487
vt 0.471259 0.508064
vt 0.483115 0.507455
vt 0.473727 0.525487
vt 0.443243 0.538330
vt 0.456377 0.538939
vt 0.452123 0.522880
vt 0.467737 0.545615
vt 0.465356 0.533749
vt 0.456377 0.538939
vt 0.456377 0.538939
vt 0.465356 0.533749
vt 0.452123 0.522880
vt 0.467737 0.545615
vt 0.473727 0.525487
vt 0.465356 0.533749
vt 0.473727 0.525487
vt 0.471259 0.508064
vt 0.465356 0.533749
vt 0.473727 0.525487
vt 0.483115 0.507455
vt 0.471259 0.508064
vt 0.496683 0.749360
vt 0.498109 0.749360
vt 0.496683 0.505700
vt 0.498109 0.505700
vt 0.383889 0.732399
vt 0.376870 0.732399
vt 0.383889 0.693020
vt 0.376870 0.693020
vt 0.428176 0.732399
vt 0.428176 0.693020
vt 0.435183 0.732399
vt 0.435183 0.693020
vt 0.420611 0.732399
vt 0.420611 0.693020
vt 0.428176 0.732399
vt 0.428176 0.693020
vt 0.420611 0.732399
vt 0.413045 0.732399
vt 0.420611 0.693020
vt 0.413045 0.693020
vt 0.413045 0.732399
vt 0.406026 0.732399
vt 0.413045 0.693020
vt 0.406026 0.693020
vt 0.399019 0.732399
vt 0.399019 0.693020
vt 0.406026 0.732399
vt 0.406026 0.693020
vt 0.391454 0.732399
vt 0.391454 0.693020
vt 0.399019 0.732399
vt 0.399019 0.693020
vt 0.391454 0.732399
vt 0.383889 0.732399
vt 0.391454 0.693020
vt 0.383889 0.693020
vt 0.376870 0.659123
vt 0.383889 0.659123
vt 0.376870 0.693020
vt 0.383889 0.693020
vt 0.435183 0.659123
vt 0.435183 0.693020
vt 0.428176 0.659123
vt 0.428176 0.693020
vt 0.428176 0.659123
vt 0.428176 0.693020
vt 0.420611 0.659123
vt 0.420611 0.693020
vt 0.413045 0.659123
vt 0.420611 0.659123
vt 0.413045 0.693020
vt 0.420611 0.693020
vt 0.406026 0.659123
vt 0.413045 0.659123
vt 0.406026 0.693020
vt 0.413045 0.693020
vt 0.406026 0.659123
vt 0.406026 0.693020
vt 0.399019 0.659123
vt 0.399019 0.693020
vt 0.399019 0.659123
vt 0.399019 0.693020
vt 0.391454 0.659123
vt 0.391454 0.693020
vt 0.383889 0.659123
vt 0.391454 0.659123
vt 0.383889 0.693020
vt 0.391454 0.693020
vt 0.383889 0.659123
vt 0.376870 0.659123
vt 0.383889 0.632854
vt 0.376870 0.632854
vt 0.428176 0.659123
vt 0.428176 0.632854
vt 0.435183 0.659123
vt 0.435183 0.632854
vt 0.428176 0.659123
vt 0.420611 0.659123
vt 0.428176 0.632854
vt 0.420611 0.632854
vt 0.413045 0.659123
vt 0.413045 0.632854
vt 0.420611 0.659123
vt 0.420611 0.632854
vt 0.413045 0.659123
vt 0.406026 0.659123
vt 0.413045 0.632854
vt 0.406026 0.632854
vt 0.399019 0.659123
vt 0.399019 0.632854
vt 0.406026 0.659123
vt 0.406026 0.632854
vt 0.399019 0.659123
vt 0.391454 0.659123
vt 0.399019 0.632854
vt 0.391454 0.632854
vt 0.383889 0.659123
vt 0.383889 0.632854
vt 0.391454 0.659123
vt 0.391454 0.632854
vt 0.430904 0.661487
vt 0.415824 0.649108
vt 0.415824 0.691363
vt 0.415824 0.649108
vt 0.400743 0.661487
vt 0.415824 0.691363
vt 0.400743 0.661487
vt 0.394505 0.691363
vt 0.415824 0.691363
vt 0.394505 0.691363
vt 0.400743 0.721238
vt 0.415824 0.691363
vt 0.400743 0.721238
vt 0.415824 0.733593
vt 0.415824 0.691363
vt 0.415824 0.733593
vt 0.430904 0.721238
vt 0.415824 0.691363
vt 0.430904 0.721238
vt 0.437142 0.691363
vt 0.415824 0.691363
vt 0.437142 0.691363
vt 0.430904 0.661487
vt 0.415824 0.691363
vt 0.376870 0.745923
vt 0.376870 0.732399
vt 0.383889 0.745923
vt 0.383889 0.732399
vt 0.435183 0.745923
vt 0.428176 0.745923
vt 0.435183 0.732399
vt 0.428176 0.732399
vt 0.428176 0.745923
vt 0.420611 0.745923
vt 0.428176 0.732399
vt 0.420611 0.732399
vt 0.413045 0.745923
vt 0.413045 0.732399
vt 0.420611 0.745923
vt 0.420611 0.732399
vt 0.406026 0.745923
vt 0.406026 0.732399
vt 0.413045 0.745923
vt 0.413045 0.732399
vt 0.406026 0.745923
vt 0.399019 0.745923
vt 0.406026 0.732399
vt 0.399019 0.732399
vt 0.399019 0.745923
vt 0.391454 0.745923
vt 0.399019 0.732399
vt 0.391454 0.732399
vt 0.383889 0.745923
vt 0.383889 0.732399
vt 0.391454 0.745923
vt 0.391454 0.732399
vt 0.497402 0.749360
vt 0.497910 0.749360
vt 0.497402 0.505700
vt 0.497910 0.505700

vn 0.816497 0.000000 0.577350
vn 0.816497 0.000000 -0.577350
vn 0.000000 -0.816497 0.577350
vn 0.000000 -0.816497 -0.577350
vn -0.816497 0.000000 0.577350
vn -0.816497 0.000000 -0.577350
vn 0.000000 0.816497 0.577350
vn 0.000000 -0.816497 0.577350
vn 0.000000 0.783692 0.621149
vn -0.816497 0.000000 0.577350
vn 0.000000 0.816497 0.577350
vn 0.816497 0.000000 -0.577350
vn 0.000000 0.783692 -0.621149
vn 0.000000 -0.816497 -0.577350
vn 0.000000 0.816497 -0.577350
vn -0.816497 0.000000 -0.577350
vn -0.676667 -0.728645 0.105821
vn -0.553687 -0.596218 0.581338
vn 0.676667 -0.728645 0.105821
vn 0.570490 -0.614312 0.545126
vn 0.000000 0.816497 0.577350
vn 0.000000 0.816497 -0.577350
vn 0.816497 0.000000 0.577350
vn 0.816497 0.000000 -0.577350
vn 0.000000 0.816497 -0.577350
vn 0.000000 0.816497 0.577350
vn -0.816497 0.000000 -0.577350
vn -0.816497 0.000000 0.577350
vn 0.000000 -0.816497 0.577350
vn 0.000000 0.816497 0.577350
vn 0.816497 0.000000 0.577350
vn 0.816497 0.000000 -0.577350
vn 0.000000 0.816497 -0.577350
vn 0.000000 0.783692 -0.621149
vn 0.239600 -0.427300 -0.871800
vn 0.239600 -0.427300 -0.871800
vn 0.239600 -0.427300 -0.871800
vn 0.294300 -0.446600 -0.845000
vn 0.294300 -0.446600 -0.845000
vn 0.294300 -0.446600 -0.845000
vn -0.239600 -0.427300 -0.871800
vn -0.239600 -0.427300 -0.871800
vn -0.239600 -0.427300 -0.871800
vn -0.294300 -0.446600 -0.845000
vn -0.294300 -0.446600 -0.845000
vn -0.294300 -0.446600 -0.845000
vn -0.756200 -0.453100 -0.472100
vn -0.756200 -0.453100 -0.472100
vn -0.756200 -0.453100 -0.472100
vn -0.787600 -0.478700 -0.388000
vn -0.787600 -0.478700 -0.388000
vn -0.787600 -0.478700 -0.388000
vn -0.756200 -0.453100 0.472100
vn -0.756200 -0.453100 0.472100
vn -0.756200 -0.453100 0.472100
vn -0.787600 -0.478700 0.388000
vn -0.787600 -0.478700 0.388000
vn -0.787600 -0.478700 0.388000
vn -0.239600 -0.427300 0.871800
vn -0.239600 -0.427300 0.871800
vn -0.239600 -0.427300 0.871800
vn -0.294300 -0.446600 0.845000
vn -0.294300 -0.446600 0.845000
vn -0.294300 -0.446600 0.845000
vn 0.239600 -0.427300 0.871800
vn 0.239600 -0.427300 0.871800
vn 0.239600 -0.427300 0.871800
vn 0.294300 -0.446600 0.845000
vn 0.294300 -0.446600 0.845000
vn 0.294300 -0.446600 0.845000
vn 0.756200 -0.453100 0.472100
vn 0.756200 -0.453100 0.472100
vn 0.756200 -0.453100 0.472100
vn 0.787600 -0.478700 0.388000
vn 0.787600 -0.478700 0.388000
vn 0.787600 -0.478700 0.388000
vn 0.756200 -0.453100 -0.472100
vn 0.756200 -0.453100 -0.472100
vn 0.756200 -0.453100 -0.472100
vn 0.787600 -0.478700 -0.388000
vn 0.787600 -0.478700 -0.388000
vn 0.787600 -0.478700 -0.388000
vn 0.330100 -0.310600 -0.891400
vn 0.330100 -0.310600 -0.891400
vn 0.330100 -0.310600 -0.891400
vn 0.315000 -0.287700 -0.904400
vn 0.315000 -0.287700 -0.904400
vn 0.315000 -0.287700 -0.904400
vn -0.330100 -0.310600 -0.891400
vn -0.330100 -0.310600 -0.891400
vn -0.330100 -0.310600 -0.891400
vn -0.315000 -0.287700 -0.904400
vn -0.315000 -0.287700 -0.904400
vn -0.315000 -0.287700 -0.904400
vn -0.752500 -0.444900 -0.485600
vn -0.752500 -0.444900 -0.485600
vn -0.752500 -0.444900 -0.485600
vn -0.758500 -0.533900 -0.373700
vn -0.758500 -0.533900 -0.373700
vn -0.758500 -0.533900 -0.373700
vn -0.752500 -0.444900 0.485600
vn -0.752500 -0.444900 0.485600
vn -0.752500 -0.444900 0.485600
vn -0.758500 -0.533900 0.373700
vn -0.758500 -0.533900 0.373700
vn -0.758500 -0.533900 0.373700
vn -0.330100 -0.310600 0.891400
vn -0.330100 -0.310600 0.891400
vn -0.330100 -0.310600 0.891400
vn -0.315000 -0.287700 0.904400
vn -0.315000 -0.287700 0.904400
vn -0.315000 -0.287700 0.904400
vn 0.330100 -0.310600 0.891400
vn 0.330100 -0.310600 0.891400
vn 0.330100 -0.310600 0.891400
vn 0.315000 -0.287700 0.904400
vn 0.315000 -0.287700 0.904400
vn 0.315000 -0.287700 0.904400
vn 0.752500 -0.444900 0.485600
vn 0.752500 -0.444900 0.485600
vn 0.752500 -0.444900 0.485600
vn 0.758500 -0.533900 0.373700
vn 0.758500 -0.533900 0.373700
vn 0.758500 -0.533900 0.373700
vn 0.752500 -0.444900 -0.485600
vn 0.752500 -0.444900 -0.485600
vn 0.752500 -0.444900 -0.485600
vn 0.758500 -0.533900 -0.373700
vn 0.758500 -0.533900 -0.373700
vn 0.758500 -0.533900 -0.373700
vn 0.142700 0.346600 -0.927100
vn 0.142700 0.346600 -0.927100
vn 0.142700 0.346600 -0.927100
vn 0.134800 0.459400 -0.878000
vn 0.134800 0.459400 -0.878000
vn 0.134800 0.459400 -0.878000
vn -0.142700 0.346600 -0.927100
vn -0.142700 0.346600 -0.927100
vn -0.142700 0.346600 -0.927100
vn -0.134800 0.459400 -0.878000
vn -0.134800 0.459400 -0.878000
vn -0.134800 0.459400 -0.878000
vn -0.776000 0.383400 -0.500800
vn -0.776000 0.383400 -0.500800
vn -0.776000 0.383400 -0.500800
vn -0.369500 0.631900 -0.681300
vn -0.369500 0.631900 -0.681300
vn -0.369500 0.631900 -0.681300
vn -0.776000 0.383400 0.500800
vn -0.776000 0.383400 0.500800
vn -0.776000 0.383400 0.500800
vn -0.369500 0.631900 0.681300
vn -0.369500 0.631900 0.681300
vn -0.369500 0.631900 0.681300
vn -0.142700 0.346600 0.927100
vn -0.142700 0.346600 0.927100
vn -0.142700 0.346600 0.927100
vn -0.134800 0.459400 0.878000
vn -0.134800 0.459400 0.878000
vn -0.134800 0.459400 0.878000
vn 0.142700 0.346600 0.927100
vn 0.142700 0.346600 0.927100
vn 0.142700 0.346600 0.927100
vn 0.134800 0.459400 0.878000
vn 0.134800 0.459400 0.878000
vn 0.134800 0.459400 0.878000
vn 0.776000 0.383400 0.500800
vn 0.776000 0.383400 0.500800
vn 0.776000 0.383400 0.500800
vn 0.369500 0.631900 0.681300
vn 0.369500 0.631900 0.681300
vn 0.369500 0.631900 0.681300
vn 0.776000 0.383400 -0.500800
vn 0.776000 0.383400 -0.500800
vn 0.776000 0.383400 -0.500800
vn 0.369500 0.631900 -0.681300
vn 0.369500 0.631900 -0.681300
vn 0.369500 0.631900 -0.681300
vn 0.255500 0.266000 -0.929500
vn 0.255500 0.266000 -0.929500
vn 0.255500 0.266000 -0.929500
vn 0.255400 0.266000 -0.929500
vn 0.255400 0.266000 -0.929500
vn 0.255400 0.266000 -0.929500
vn -0.255500 0.266000 -0.929500
vn -0.255500 0.266000 -0.929500
vn -0.255500 0.266000 -0.929500
vn -0.255500 0.266000 -0.929500
vn -0.796600 0.343600 -0.497300
vn -0.796600 0.343600 -0.497400
vn -0.796600 0.343600 -0.497400
vn -0.796600 0.343600 -0.497400
vn -0.796600 0.343600 0.497300
vn -0.796600 0.343600 0.497300
vn -0.796600 0.343600 0.497300
vn -0.796600 0.343600 0.497400
vn -0.796600 0.343600 0.497400
vn -0.796600 0.343600 0.497400
vn -0.255500 0.266000 0.929500
vn -0.255500 0.266000 0.929500
vn -0.255500 0.266000 0.929500
vn -0.255500 0.266000 0.929500
vn 0.255500 0.266000 0.929500
vn 0.255500 0.266000 0.929500
vn 0.255500 0.266000 0.929500
vn 0.255500 0.266000 0.929500
vn 0.796600 0.343600 0.497400
vn 0.796600 0.343600 0.497400
vn 0.796600 0.343600 0.497400
vn 0.796600 0.343600 0.497300
vn 0.796600 0.343600 -0.497400
vn 0.796600 0.343600 -0.497400
vn 0.796600 0.343600 -0.497400
vn 0.796600 0.343600 -0.497300
vn 0.796600 0.343600 -0.497300
vn 0.796600 0.343600 -0.497300
vn -0.290600 0.726900 -0.622200
vn -0.290600 0.726900 -0.622200
vn -0.290600 0.726900 -0.622200
vn 0.510400 0.804800 -0.302800
vn 0.510400 0.804800 -0.302800
vn 0.510400 0.804800 -0.302800
vn 0.629800 0.590100 -0.505100
vn 0.629800 0.590100 -0.505100
vn 0.629800 0.590100 -0.505100
vn -0.510400 0.804900 -0.302800
vn -0.510400 0.804900 -0.302800
vn -0.510400 0.804900 -0.302800
vn -0.629800 0.590100 -0.505100
vn -0.629800 0.590100 -0.505100
vn -0.629800 0.590100 -0.505100
vn 0.290600 0.726900 -0.622200
vn 0.290600 0.726900 -0.622200
vn 0.290600 0.726900 -0.622200
vn -0.290600 0.726900 0.622200
vn -0.290600 0.726900 0.622200
vn -0.290600 0.726900 0.622200
vn 0.510400 0.804900 0.302800
vn 0.510400 0.804900 0.302800
vn 0.510400 0.804900 0.302800
vn 0.629800 0.590100 0.505100
vn 0.629800 0.590100 0.505100
vn 0.629800 0.590100 0.505100
vn -0.510400 0.804900 0.302800
vn -0.510400 0.804900 0.302800
vn -0.510400 0.804900 0.302800
vn -0.629800 0.590100 0.505100
vn -0.629800 0.590100 0.505100
vn -0.629800 0.590100 0.505100
vn 0.290600 0.726900 0.622200
vn 0.290600 0.726900 0.622200
vn 0.290600 0.726900 0.622200
vn 0.000000 0.196600 0.980500
vn 0.000000 0.196600 0.980500
vn 0.000000 0.196700 0.980500
vn 0.000000 0.196700 0.980500
vn 0.296200 -0.677000 -0.673800
vn 0.296200 -0.677000 -0.673800
vn 0.296200 -0.677000 -0.673800
vn 0.296200 -0.677000 -0.673700
vn -0.296200 -0.677000 -0.673800
vn -0.296200 -0.677000 -0.673800
vn -0.296200 -0.677000 -0.673800
vn -0.296200 -0.677000 -0.673800
vn -0.698600 -0.661500 -0.272700
vn -0.698600 -0.661500 -0.272700
vn -0.698600 -0.661500 -0.272700
vn -0.698600 -0.661500 -0.272700
vn -0.698600 -0.661500 0.272700
vn -0.698600 -0.661500 0.272700
vn -0.698600 -0.661500 0.272700
vn -0.698600 -0.661500 0.272700
vn -0.296200 -0.677000 0.673800
vn -0.296200 -0.677000 0.673800
vn -0.296200 -0.677000 0.673800
vn -0.296200 -0.677000 0.673800
vn 0.296200 -0.677000 0.673800
vn 0.296200 -0.677000 0.673800
vn 0.296200 -0.677000 0.673800
vn 0.296200 -0.677000 0.673700
vn 0.698600 -0.661500 0.272700
vn 0.698600 -0.661500 0.272700
vn 0.698600 -0.661500 0.272700
vn 0.698600 -0.661500 0.272700
vn 0.698600 -0.661500 -0.272700
vn 0.698600 -0.661500 -0.272700
vn 0.698600 -0.661500 -0.272700
vn 0.698600 -0.661500 -0.272700
vn 0.390800 -0.239000 -0.888900
vn 0.390800 -0.239000 -0.888900
vn 0.390800 -0.239000 -0.888900
vn 0.390800 -0.239000 -0.888900
vn -0.390800 -0.239000 -0.888900
vn -0.390800 -0.239000 -0.888900
vn -0.390800 -0.239000 -0.888900
vn -0.390800 -0.239000 -0.888900
vn -0.906700 -0.229700 -0.353900
vn -0.906700 -0.229700 -0.353900
vn -0.906700 -0.229700 -0.353900
vn -0.906700 -0.229700 -0.353900
vn -0.906700 -0.229700 0.353900
vn -0.906700 -0.229700 0.353900
vn -0.906700 -0.229700 0.353900
vn -0.906700 -0.229700 0.353900
vn -0.390800 -0.239000 0.888900
vn -0.390800 -0.239000 0.888900
vn -0.390800 -0.239000 0.888900
vn -0.390800 -0.239000 0.888900
vn 0.390800 -0.239000 0.888900
vn 0.390800 -0.239000 0.888900
vn 0.390800 -0.239000 0.888900
vn 0.390800 -0.239000 0.888900
vn 0.906700 -0.229700 0.353900
vn 0.906700 -0.229700 0.353900
vn 0.906700 -0.229700 0.353900
vn 0.906700 -0.229700 0.353900
vn 0.906700 -0.229700 -0.353900
vn 0.906700 -0.229700 -0.353900
vn 0.906700 -0.229700 -0.353900
vn 0.906700 -0.229700 -0.353900
vn 0.360200 0.445800 -0.819500
vn 0.360200 0.445800 -0.819500
vn 0.360200 0.445800 -0.819500
vn 0.360200 0.445800 -0.819500
vn -0.360200 0.445800 -0.819500
vn -0.360200 0.445800 -0.819500
vn -0.360200 0.445800 -0.819500
vn -0.360200 0.445800 -0.819500
vn -0.840700 0.430900 -0.328100
vn -0.840700 0.430900 -0.328100
vn -0.840700 0.430900 -0.328100
vn -0.840700 0.430900 -0.328100
vn -0.840600 0.430900 0.328100
vn -0.840700 0.430900 0.328100
vn -0.840700 0.430900 0.328100
vn -0.840700 0.430900 0.328100
vn -0.360200 0.445800 0.819500
vn -0.360200 0.445800 0.819500
vn -0.360200 0.445800 0.819500
vn -0.360200 0.445800 0.819500
vn 0.360200 0.445800 0.819500
vn 0.360200 0.445800 0.819500
vn 0.360200 0.445800 0.819500
vn 0.360200 0.445800 0.819500
vn 0.840700 0.430900 0.328100
vn 0.840700 0.430900 0.328100
vn 0.840700 0.430900 0.328100
vn 0.840700 0.430900 0.328100
vn 0.840700 0.430900 -0.328100
vn 0.840700 0.430900 -0.328100
vn 0.840700 0.430900 -0.328100
vn 0.840700 0.430900 -0.328100
vn 0.147500 0.930500 -0.335400
vn 0.147500 0.930500 -0.335400
vn 0.147500 0.930500 -0.335400
vn -0.147500 0.930500 -0.335400
vn -0.147500 0.930500 -0.335400
vn -0.147500 0.930500 -0.335400
vn -0.353900 0.925000 -0.138100
vn -0.353900 0.925000 -0.138100
vn -0.353900 0.925000 -0.138100
vn -0.353900 0.925000 0.138100
vn -0.353900 0.925000 0.138100
vn -0.353900 0.925000 0.138100
vn -0.147500 0.930500 0.335400
vn -0.147500 0.930500 0.335400
vn -0.147500 0.930500 0.335400
vn 0.147500 0.930500 0.335400
vn 0.147500 0.930500 0.335400
vn 0.147500 0.930500 0.335400
vn 0.353900 0.925000 0.138100
vn 0.353900 0.925000 0.138100
vn 0.353900 0.925000 0.138100
vn 0.353900 0.925000 -0.138100
vn 0.353900 0.925000 -0.138100
vn 0.353900 0.925000 -0.138100
vn 0.371200 0.386400 -0.844300
vn 0.371200 0.386400 -0.844300
vn 0.371200 0.386400 -0.844300
vn 0.371200 0.386400 -0.844300
vn -0.371200 0.386400 -0.844300
vn -0.371200 0.386400 -0.844300
vn -0.371200 0.386400 -0.844300
vn -0.371200 0.386400 -0.844300
vn -0.864400 0.372800 -0.337400
vn -0.864400 0.372800 -0.337400
vn -0.864400 0.372800 -0.337400
vn -0.864400 0.372800 -0.337400
vn -0.864400 0.372800 0.337400
vn -0.864400 0.372800 0.337400
vn -0.864400 0.372800 0.337400
vn -0.864400 0.372800 0.337400
vn -0.371200 0.386400 0.844300
vn -0.371200 0.386400 0.844300
vn -0.371200 0.386400 0.844300
vn -0.371200 0.386400 0.844300
vn 0.371200 0.386400 0.844300
vn 0.371200 0.386400 0.844300
vn 0.371200 0.386400 0.844300
vn 0.371200 0.386400 0.844300
vn 0.864400 0.372800 0.337400
vn 0.864400 0.372800 0.337400
vn 0.864400 0.372800 0.337400
vn 0.864400 0.372800 0.337400
vn 0.864400 0.372800 -0.337400
vn 0.864400 0.372800 -0.337400
vn 0.864400 0.372800 -0.337400
vn 0.864400 0.372800 -0.337400
vn 0.000000 -0.019500 0.999800
vn 0.000000 -0.019500 0.999800
vn 0.000000 -0.019500 0.999800
vn 0.000000 -0.019500 0.999800
vn 0.871800 -0.427300 0.239600
vn 0.871800 -0.427300 0.239600
vn 0.871800 -0.427300 0.239600
vn 0.845000 -0.446600 0.294300
vn 0.845000 -0.446600 0.294300
vn 0.845000 -0.446600 0.294300
vn 0.871800 -0.427300 -0.239600
vn 0.871800 -0.427300 -0.239600
vn 0.871800 -0.427300 -0.239600
vn 0.845000 -0.446600 -0.294300
vn 0.845000 -0.446600 -0.294300
vn 0.845000 -0.446600 -0.294300
vn 0.472100 -0.453100 -0.756200
vn 0.472100 -0.453100 -0.756200
vn 0.472100 -0.453100 -0.756200
vn 0.388000 -0.478700 -0.787600
vn 0.388000 -0.478700 -0.787600
vn 0.388000 -0.478700 -0.787600
vn -0.472100 -0.453100 -0.756200
vn -0.472100 -0.453100 -0.756200
vn -0.472100 -0.453100 -0.756200
vn -0.388000 -0.478700 -0.787600
vn -0.388000 -0.478700 -0.787600
vn -0.388000 -0.478700 -0.787600
vn -0.871800 -0.427300 -0.239600
vn -0.871800 -0.427300 -0.239600
vn -0.871800 -0.427300 -0.239600
vn -0.845000 -0.446600 -0.294300
vn -0.845000 -0.446600 -0.294300
vn -0.845000 -0.446600 -0.294300
vn -0.871800 -0.427300 0.239600
vn -0.871800 -0.427300 0.239600
vn -0.871800 -0.427300 0.239600
vn -0.845000 -0.446600 0.294300
vn -0.845000 -0.446600 0.294300
vn -0.845000 -0.446600 0.294300
vn -0.472100 -0.453100 0.756200
vn -0.472100 -0.453100 0.756200
vn -0.472100 -0.453100 0.756200
vn -0.388000 -0.478700 0.787600
vn -0.388000 -0.478700 0.787600
vn -0.388000 -0.478700 0.787600
vn 0.472100 -0.453100 0.756200
vn 0.472100 -0.453100 0.756200
vn 0.472100 -0.453100 0.756200
vn 0.388000 -0.478700 0.787600
vn 0.388000 -0.478700 0.787600
vn 0.388000 -0.478700 0.787600
vn 0.891400 -0.310600 0.330100
vn 0.891400 -0.310600 0.330100
vn 0.891400 -0.310600 0.330100
vn 0.904400 -0.287700 0.315000
vn 0.904400 -0.287700 0.315000
vn 0.904400 -0.287700 0.315000
vn 0.891400 -0.310600 -0.330100
vn 0.891400 -0.310600 -0.330100
vn 0.891400 -0.310600 -0.330100
vn 0.904400 -0.287700 -0.315000
vn 0.904400 -0.287700 -0.315000
vn 0.904400 -0.287700 -0.315000
vn 0.485600 -0.444900 -0.752500
vn 0.485600 -0.444900 -0.752500
vn 0.485600 -0.444900 -0.752500
vn 0.373700 -0.533900 -0.758500
vn 0.373700 -0.533900 -0.758500
vn 0.373700 -0.533900 -0.758500
vn -0.485600 -0.444900 -0.752500
vn -0.485600 -0.444900 -0.752500
vn -0.485600 -0.444900 -0.752500
vn -0.373700 -0.533900 -0.758500
vn -0.373700 -0.533900 -0.758500
vn -0.373700 -0.533900 -0.758500
vn -0.891400 -0.310600 -0.330100
vn -0.891400 -0.310600 -0.330100
vn -0.891400 -0.310600 -0.330100
vn -0.904400 -0.287700 -0.315000
vn -0.904400 -0.287700 -0.315000
vn -0.904400 -0.287700 -0.315000
vn -0.891400 -0.310600 0.330100
vn -0.891400 -0.310600 0.330100
vn -0.891400 -0.310600 0.330100
vn -0.904400 -0.287700 0.315000
vn -0.904400 -0.287700 0.315000
vn -0.904400 -0.287700 0.315000
vn -0.485600 -0.444900 0.752500
vn -0.485600 -0.444900 0.752500
vn -0.485600 -0.444900 0.752500
vn -0.373700 -0.533900 0.758500
vn -0.373700 -0.533900 0.758500
vn -0.373700 -0.533900 0.758500
vn 0.485600 -0.444900 0.752500
vn 0.485600 -0.444900 0.752500
vn 0.485600 -0.444900 0.752500
vn 0.373700 -0.533900 0.758500
vn 0.373700 -0.533900 0.758500
vn 0.373700 -0.533900 0.758500
vn 0.927100 0.346600 0.142700
vn 0.927100 0.346600 0.142700
vn 0.927100 0.346600 0.142700
vn 0.878000 0.459400 0.134800
vn 0.878000 0.459400 0.134800
vn 0.878000 0.459400 0.134800
vn 0.927100 0.346600 -0.142700
vn 0.927100 0.346600 -0.142700
vn 0.927100 0.346600 -0.142700
vn 0.878000 0.459400 -0.134800
vn 0.878000 0.459400 -0.134800
vn 0.878000 0.459400 -0.134800
vn 0.500800 0.383400 -0.776000
vn 0.500800 0.383400 -0.776000
vn 0.500800 0.383400 -0.776000
vn 0.681300 0.631900 -0.369500
vn 0.681300 0.631900 -0.369500
vn 0.681300 0.631900 -0.369500
vn -0.500800 0.383400 -0.776000
vn -0.500800 0.383400 -0.776000
vn -0.500800 0.383400 -0.776000
vn -0.681300 0.631900 -0.369500
vn -0.681300 0.631900 -0.369500
vn -0.681300 0.631900 -0.369500
vn -0.927100 0.346600 -0.142700
vn -0.927100 0.346600 -0.142700
vn -0.927100 0.346600 -0.142700
vn -0.878000 0.459400 -0.134900
vn -0.878000 0.459400 -0.134900
vn -0.878000 0.459400 -0.134900
vn -0.927100 0.346600 0.142700
vn -0.927100 0.346600 0.142700
vn -0.927100 0.346600 0.142700
vn -0.878000 0.459400 0.134900
vn -0.878000 0.459400 0.134900
vn -0.878000 0.459400 0.134900
vn -0.500800 0.383400 0.776000
vn -0.500800 0.383400 0.776000
vn -0.500800 0.383400 0.776000
vn -0.681300 0.631900 0.369500
vn -0.681300 0.631900 0.369500
vn -0.681300 0.631900 0.369500
vn 0.500800 0.383400 0.776000
vn 0.500800 0.383400 0.776000
vn 0.500800 0.383400 0.776000
vn 0.681300 0.631900 0.369500
vn 0.681300 0.631900 0.369500
vn 0.681300 0.631900 0.369500
vn 0.929500 0.266000 0.255500
vn 0.929500 0.266000 0.255500
vn 0.929500 0.266000 0.255500
vn 0.929500 0.266000 0.255500
vn 0.929500 0.266000 -0.255500
vn 0.929500 0.266000 -0.255500
vn 0.929500 0.266000 -0.255500
vn 0.929500 0.266000 -0.255400
vn 0.497400 0.343600 -0.796600
vn 0.497400 0.343600 -0.796600
vn 0.497400 0.343600 -0.796600
vn 0.497300 0.343600 -0.796600
vn -0.497400 0.343600 -0.796600
vn -0.497400 0.343600 -0.796600
vn -0.497400 0.343600 -0.796600
vn -0.497300 0.343600 -0.796600
vn -0.497300 0.343600 -0.796600
vn -0.497300 0.343600 -0.796600
vn -0.929500 0.266000 -0.255500
vn -0.929500 0.266000 -0.255500
vn -0.929500 0.266000 -0.255500
vn -0.929500 0.266000 -0.255400
vn -0.929500 0.266000 -0.255400
vn -0.929500 0.266000 -0.255400
vn -0.929500 0.266000 0.255500
vn -0.929500 0.266000 0.255500
vn -0.929500 0.266000 0.255500
vn -0.929500 0.266000 0.255500
vn -0.497300 0.343600 0.796600
vn -0.497400 0.343600 0.796600
vn -0.497400 0.343600 0.796600
vn -0.497400 0.343600 0.796600
vn 0.497300 0.343600 0.796600
vn 0.497300 0.343600 0.796600
vn 0.497300 0.343600 0.796600
vn 0.497400 0.343600 0.796600
vn 0.497400 0.343600 0.796600
vn 0.497400 0.343600 0.796600
vn 0.622200 0.726900 -0.290600
vn 0.622200 0.726900 -0.290600
vn 0.622200 0.726900 -0.290600
vn 0.302800 0.804900 0.510400
vn 0.302800 0.804900 0.510400
vn 0.302800 0.804900 0.510400
vn 0.505100 0.590100 0.629800
vn 0.505100 0.590100 0.629800
vn 0.505100 0.590100 0.629800
vn 0.302800 0.804800 -0.510400
vn 0.302800 0.804800 -0.510400
vn 0.302800 0.804800 -0.510400
vn 0.505100 0.590100 -0.629800
vn 0.505100 0.590100 -0.629800
vn 0.505100 0.590100 -0.629800
vn 0.622200 0.726900 0.290600
vn 0.622200 0.726900 0.290600
vn 0.622200 0.726900 0.290600
vn -0.622200 0.726900 -0.290600
vn -0.622200 0.726900 -0.290600
vn -0.622200 0.726900 -0.290600
vn -0.302800 0.804900 0.510400
vn -0.302800 0.804900 0.510400
vn -0.302800 0.804900 0.510400
vn -0.505100 0.590100 0.629800
vn -0.505100 0.590100 0.629800
vn -0.505100 0.590100 0.629800
vn -0.302800 0.804800 -0.510400
vn -0.302800 0.804800 -0.510400
vn -0.302800 0.804800 -0.510400
vn -0.505100 0.590100 -0.629800
vn -0.505100 0.590100 -0.629800
vn -0.505100 0.590100 -0.629800
vn -0.622200 0.726900 0.290600
vn -0.622200 0.726900 0.290600
vn -0.622200 0.726900 0.290600
vn -0.977800 0.209600 0.000000
vn -0.977800 0.209600 0.000000
vn -0.977800 0.209600 0.000000
vn -0.977800 0.209600 0.000000
vn 0.296200 -0.677000 -0.673800
vn 0.296200 -0.677000 -0.673800
vn 0.296200 -0.677000 -0.673800
vn 0.296200 -0.677000 -0.673800
vn -0.296200 -0.677000 -0.673800
vn -0.296200 -0.677000 -0.673800
vn -0.296200 -0.677000 -0.673800
vn -0.296200 -0.677000 -0.673800
vn -0.698600 -0.661500 -0.272700
vn -0.698600 -0.661500 -0.272700
vn -0.698600 -0.661500 -0.272700
vn -0.698600 -0.661500 -0.272700
vn -0.698600 -0.661500 0.272700
vn -0.698600 -0.661500 0.272700
vn -0.698600 -0.661500 0.272700
vn -0.698600 -0.661500 0.272700
vn -0.296200 -0.677000 0.673800
vn -0.296200 -0.677000 0.673800
vn -0.296200 -0.677000 0.673800
vn -0.296200 -0.677000 0.673800
vn 0.296200 -0.677000 0.673800
vn 0.296200 -0.677000 0.673800
vn 0.296200 -0.677000 0.673800
vn 0.296200 -0.677000 0.673800
vn 0.698600 -0.661500 0.272700
vn 0.698600 -0.661500 0.272700
vn 0.698600 -0.661500 0.272700
vn 0.698600 -0.661500 0.272700
vn 0.698600 -0.661500 -0.272700
vn 0.698600 -0.661500 -0.272700
vn 0.698600 -0.661500 -0.272700
vn 0.698600 -0.661500 -0.272700
vn 0.390800 -0.239000 -0.888900
vn 0.390800 -0.239000 -0.888900
vn 0.390800 -0.239000 -0.888900
vn 0.390800 -0.239000 -0.888900
vn -0.390800 -0.239000 -0.888900
vn -0.390800 -0.239000 -0.888900
vn -0.390800 -0.239000 -0.888900
vn -0.390800 -0.239000 -0.888900
vn -0.906700 -0.229700 -0.353900
vn -0.906700 -0.229700 -0.353900
vn -0.906700 -0.229700 -0.353900
vn -0.906700 -0.229700 -0.353900
vn -0.906700 -0.229700 0.353900
vn -0.906700 -0.229700 0.353900
vn -0.906700 -0.229700 0.353900
vn -0.906700 -0.229700 0.353900
vn -0.390800 -0.239000 0.888900
vn -0.390800 -0.239000 0.888900
vn -0.390800 -0.239000 0.888900
vn -0.390800 -0.239000 0.888900
vn 0.390800 -0.239000 0.888900
vn 0.390800 -0.239000 0.888900
vn 0.390800 -0.239000 0.888900
vn 0.390800 -0.239000 0.888900
vn 0.906700 -0.229700 0.353900
vn 0.906700 -0.229700 0.353900
vn 0.906700 -0.229700 0.353900
vn 0.906700 -0.229700 0.353900
vn 0.906700 -0.229700 -0.353900
vn 0.906700 -0.229700 -0.353900
vn 0.906700 -0.229700 -0.353900
vn 0.906700 -0.229700 -0.353900
vn 0.360200 0.445800 -0.819500
vn 0.360200 0.445800 -0.819500
vn 0.360200 0.445800 -0.819500
vn 0.360200 0.445800 -0.819500
vn -0.360200 0.445800 -0.819500
vn -0.360200 0.445800 -0.819500
vn -0.360200 0.445800 -0.819500
vn -0.360200 0.445800 -0.819500
vn -0.840700 0.430900 -0.328100
vn -0.840700 0.430900 -0.328100
vn -0.840700 0.430900 -0.328100
vn -0.840700 0.430900 -0.328100
vn -0.840700 0.430900 0.328100
vn -0.840700 0.430900 0.328100
vn -0.840700 0.430900 0.328100
vn -0.840700 0.430900 0.328100
vn -0.360200 0.445800 0.819500
vn -0.360200 0.445800 0.819500
vn -0.360200 0.445800 0.819500
vn -0.360200 0.445800 0.819500
vn 0.360200 0.445800 0.819500
vn 0.360200 0.445800 0.819500
vn 0.360200 0.445800 0.819500
vn 0.360200 0.445800 0.819500
vn 0.840700 0.430900 0.328100
vn 0.840700 0.430900 0.328100
vn 0.840700 0.430900 0.328100
vn 0.840700 0.430900 0.328100
vn 0.840700 0.430900 -0.328100
vn 0.840700 0.430900 -0.328100
vn 0.840700 0.430900 -0.328100
vn 0.840700 0.430900 -0.328100
vn 0.147500 0.930500 -0.335400
vn 0.147500 0.930500 -0.335400
vn 0.147500 0.930500 -0.335400
vn -0.147500 0.930500 -0.335400
vn -0.147500 0.930500 -0.335400
vn -0.147500 0.930500 -0.335400
vn -0.353900 0.925000 -0.138100
vn -0.353900 0.925000 -0.138100
vn -0.353900 0.925000 -0.138100
vn -0.353900 0.925000 0.138100
vn -0.353900 0.925000 0.138100
vn -0.353900 0.925000 0.138100
vn -0.147500 0.930500 0.335400
vn -0.147500 0.930500 0.335400
vn -0.147500 0.930500 0.335400
vn 0.147500 0.930500 0.335400
vn 0.147500 0.930500 0.335400
vn 0.147500 0.930500 0.335400
vn 0.353900 0.925000 0.138100
vn 0.353900 0.925000 0.138100
vn 0.353900 0.925000 0.138100
vn 0.353900 0.925000 -0.138100
vn 0.353900 0.925000 -0.138100
vn 0.353900 0.925000 -0.138100
vn 0.371200 0.386400 -0.844300
vn 0.371200 0.386400 -0.844300
vn 0.371200 0.386400 -0.844300
vn 0.371200 0.386400 -0.844300
vn -0.371200 0.386400 -0.844300
vn -0.371200 0.386400 -0.844300
vn -0.371200 0.386400 -0.844300
vn -0.371200 0.386400 -0.844300
vn -0.864400 0.372800 -0.337400
vn -0.864400 0.372800 -0.337400
vn -0.864400 0.372800 -0.337400
vn -0.864400 0.372800 -0.337400
vn -0.864400 0.372800 0.337400
vn -0.864400 0.372800 0.337400
vn -0.864400 0.372800 0.337400
vn -0.864400 0.372800 0.337400
vn -0.371200 0.386400 0.844300
vn -0.371200 0.386400 0.844300
vn -0.371200 0.386400 0.844300
vn -0.371200 0.386400 0.844300
vn 0.371200 0.386400 0.844300
vn 0.371200 0.386400 0.844300
vn 0.371200 0.386400 0.844300
vn 0.371200 0.386400 0.844300
vn 0.864400 0.372800 0.337400
vn 0.864400 0.372800 0.337400
vn 0.864400 0.372800 0.337400
vn 0.864400 0.372800 0.337400
vn 0.864400 0.372800 -0.337400
vn 0.864400 0.372800 -0.337400
vn 0.864400 0.372800 -0.337400
vn 0.864400 0.372800 -0.337400
vn 0.000000 -0.197100 0.980400
vn 0.000000 -0.197100 0.980400
vn 0.000000 -0.197100 0.980400
vn 0.000000 -0.197100 0.980400

g batch_0001
usemtl batch_0001
f 1/1/1 2/2/2 3/3/3
f 2/2/2 4/4/4 3/3/3
f 3/3/3 4/4/4 5/5/5
f 4/4/4 6/6/6 5/5/5
f 7/7/7 8/8/8 9/9/9
f 8/8/8 10/10/10 9/9/9
f 9/9/9 10/10/10 11/11/11
f 12/12/12 13/13/13 14/14/14
f 13/13/13 15/15/15 14/14/14
f 14/14/14 15/15/15 16/16/16
f 17/17/17 18/18/18 19/19/19
f 18/18/18 20/20/20 19/19/19
f 21/21/21 22/22/22 23/23/23
f 22/22/22 24/24/24 23/23/23
f 25/25/25 26/26/26 27/27/27
f 26/26/26 28/28/28 27/27/27
f 29/29/29 30/30/30 31/31/31
f 30/30/30 32/32/32 31/31/31
f 31/31/31 32/32/32 33/33/33
f 32/32/32 34/34/34 33/33/33
f 35/35/35 36/36/36 37/37/37
f 38/38/38 39/39/39 40/40/40
f 41/41/41 42/42/42 43/43/43
f 44/44/44 45/45/45 46/46/46
f 47/47/47 48/48/48 49/49/49
f 50/50/50 51/51/51 52/52/52
f 53/53/53 54/54/54 55/55/55
f 56/56/56 57/57/57 58/58/58
f 59/59/59 60/60/60 61/61/61
f 62/62/62 63/63/63 64/64/64
f 65/65/65 66/66/66 67/67/67
f 68/68/68 69/69/69 70/70/70
f 71/71/71 72/72/72 73/73/73
f 74/74/74 75/75/75 76/76/76
f 77/77/77 78/78/78 79/79/79
f 80/80/80 81/81/81 82/82/82
f 83/83/83 84/84/84 85/85/85
f 86/86/86 87/87/87 88/88/88
f 89/89/89 90/90/90 91/91/91
f 92/92/92 93/93/93 94/94/94
f 95/95/95 96/96/96 97/97/97
f 98/98/98 99/99/99 100/100/100
f 101/101/101 102/102/102 103/103/103
f 104/104/104 105/105/105 106/106/106
f 107/107/107 108/108/108 109/109/109
f 110/110/110 111/111/111 112/112/112
f 113/113/113 114/114/114 115/115/115
f 116/116/116 117/117/117 118/118/118
f 119/119/119 120/120/120 121/121/121
f 122/122/122 123/123/123 124/124/124
f 125/125/125 126/126/126 127/127/127
f 128/128/128 129/129/129 130/130/130
f 131/131/131 132/132/132 133/133/133
f 134/134/134 135/135/135 136/136/136
f 137/137/137 138/138/138 139/139/139
f 140/140/140 141/141/141 142/142/142
f 143/143/143 144/144/144 145/145/145
f 146/146/146 147/147/147 148/148/148
f 149/149/149 150/150/150 151/151/151
f 152/152/152 153/153/153 154/154/154
f 155/155/155 156/156/156 157/157/157
f 158/158/158 159/159/159 160/160/160
f 161/161/161 162/162/162 163/163/163
f 164/164/164 165/165/165 166/166/166
f 167/167/167 168/168/168 169/169/169
f 170/170/170 171/171/171 172/172/172
f 173/173/173 174/174/174 175/175/175
f 176/176/176 177/177/177 178/178/178
f 179/179/179 180/180/180 181/181/181
f 182/182/182 183/183/183 184/184/184
f 185/185/185 186/186/186 187/187/187
f 186/186/186 188/188/188 187/187/187
f 189/189/189 190/190/190 191/191/191
f 190/190/190 192/192/192 191/191/191
f 193/193/193 194/194/194 195/195/195
f 196/196/196 197/197/197 198/198/198
f 199/199/199 200/200/200 201/201/201
f 200/200/200 202/202/202 201/201/201
f 203/203/203 204/204/204 205/205/205
f 204/204/204 206/206/206 205/205/205
f 207/207/207 208/208/208 209/209/209
f 208/208/208 210/210/210 209/209/209
f 211/211/211 212/212/212 213/213/213
f 214/214/214 215/215/215 216/216/216
f 217/217/217 218/218/218 219/219/219
f 220/220/220 221/221/221 222/222/222
f 223/223/223 224/224/224 225/225/225
f 226/226/226 227/227/227 228/228/228
f 229/229/229 230/230/230 231/231/231
f 232/232/232 233/233/233 234/234/234
f 235/235/235 236/236/236 237/237/237
f 238/238/238 239/239/239 240/240/240
f 241/241/241 242/242/242 243/243/243
f 244/244/244 245/245/245 246/246/246
f 247/247/247 248/248/248 249/249/249
f 250/250/250 251/251/251 252/252/252
f 253/253/253 254/254/254 255/255/255
f 254/254/254 256/256/256 255/255/255
f 257/257/257 258/258/258 259/259/259
f 258/258/258 260/260/260 259/259/259
f 261/261/261 262/262/262 263/263/263
f 262/262/262 264/264/264 263/263/263
f 265/265/265 266/266/266 267/267/267
f 266/266/266 268/268/268 267/267/267
f 269/269/269 270/270/270 271/271/271
f 270/270/270 272/272/272 271/271/271
f 273/273/273 274/274/274 275/275/275
f 274/274/274 276/276/276 275/275/275
f 277/277/277 278/278/278 279/279/279
f 278/278/278 280/280/280 279/279/279
f 281/281/281 282/282/282 283/283/283
f 282/282/282 284/284/284 283/283/283
f 285/285/285 286/286/286 287/287/287
f 286/286/286 288/288/288 287/287/287
f 289/289/289 290/290/290 291/291/291
f 290/290/290 292/292/292 291/291/291
f 293/293/293 294/294/294 295/295/295
f 294/294/294 296/296/296 295/295/295
f 297/297/297 298/298/298 299/299/299
f 298/298/298 300/300/300 299/299/299
f 301/301/301 302/302/302 303/303/303
f 302/302/302 304/304/304 303/303/303
f 305/305/305 306/306/306 307/307/307
f 306/306/306 308/308/308 307/307/307
f 309/309/309 310/310/310 311/311/311
f 310/310/310 312/312/312 311/311/311
f 313/313/313 314/314/314 315/315/315
f 314/314/314 316/316/316 315/315/315
f 317/317/317 318/318/318 319/319/319
f 318/318/318 320/320/320 319/319/319
f 321/321/321 322/322/322 323/323/323
f 322/322/322 324/324/324 323/323/323
f 325/325/325 326/326/326 327/327/327
f 326/326/326 328/328/328 327/327/327
f 329/329/329 330/330/330 331/331/331
f 330/330/330 332/332/332 331/331/331
f 333/333/333 334/334/334 335/335/335
f 334/334/334 336/336/336 335/335/335
f 337/337/337 338/338/338 339/339/339
f 338/338/338 340/340/340 339/339/339
f 341/341/341 342/342/342 343/343/343
f 342/342/342 344/344/344 343/343/343
f 345/345/345 346/346/346 347/347/347
f 346/346/346 348/348/348 347/347/347
f 349/349/349 350/350/350 351/351/351
f 350/350/350 352/352/352 351/351/351
f 353/353/353 354/354/354 355/355/355
f 356/356/356 357/357/357 358/358/358
f 359/359/359 360/360/360 361/361/361
f 362/362/362 363/363/363 364/364/364
f 365/365/365 366/366/366 367/367/367
f 368/368/368 369/369/369 370/370/370
f 371/371/371 372/372/372 373/373/373
f 374/374/374 375/375/375 376/376/376
f 377/377/377 378/378/378 379/379/379
f 378/378/378 380/380/380 379/379/379
f 381/381/381 382/382/382 383/383/383
f 382/382/382 384/384/384 383/383/383
f 385/385/385 386/386/386 387/387/387
f 386/386/386 388/388/388 387/387/387
f 389/389/389 390/390/390 391/391/391
f 390/390/390 392/392/392 391/391/391
f 393/393/393 394/394/394 395/395/395
f 394/394/394 396/396/396 395/395/395
f 397/397/397 398/398/398 399/399/399
f 398/398/398 400/400/400 399/399/399
f 401/401/401 402/402/402 403/403/403
f 402/402/402 404/404/404 403/403/403
f 405/405/405 406/406/406 407/407/407
f 406/406/406 408/408/408 407/407/407
f 409/409/409 410/410/410 411/411/411
f 410/410/410 412/412/412 411/411/411
f 413/413/413 414/414/414 415/415/415
f 416/416/416 417/417/417 418/418/418
f 419/419/419 420/420/420 421/421/421
f 422/422/422 423/423/423 424/424/424
f 425/425/425 426/426/426 427/427/427
f 428/428/428 429/429/429 430/430/430
f 431/431/431 432/432/432 433/433/433
f 434/434/434 435/435/435 436/436/436
f 437/437/437 438/438/438 439/439/439
f 440/440/440 441/441/441 442/442/442
f 443/443/443 444/444/444 445/445/445
f 446/446/446 447/447/447 448/448/448
f 449/449/449 450/450/450 451/451/451
f 452/452/452 453/453/453 454/454/454
f 455/455/455 456/456/456 457/457/457
f 458/458/458 459/459/459 460/460/460
f 461/461/461 462/462/462 463/463/463
f 464/464/464 465/465/465 466/466/466
f 467/467/467 468/468/468 469/469/469
f 470/470/470 471/471/471 472/472/472
f 473/473/473 474/474/474 475/475/475
f 476/476/476 477/477/477 478/478/478
f 479/479/479 480/480/480 481/481/481
f 482/482/482 483/483/483 484/484/484
f 485/485/485 486/486/486 487/487/487
f 488/488/488 489/489/489 490/490/490
f 491/491/491 492/492/492 493/493/493
f 494/494/494 495/495/495 496/496/496
f 497/497/497 498/498/498 499/499/499
f 500/500/500 501/501/501 502/502/502
f 503/503/503 504/504/504 505/505/505
f 506/506/506 507/507/507 508/508/508
f 509/509/509 510/510/510 511/511/511
f 512/512/512 513/513/513 514/514/514
f 515/515/515 516/516/516 517/517/517
f 518/518/518 519/519/519 520/520/520
f 521/521/521 522/522/522 523/523/523
f 524/524/524 525/525/525 526/526/526
f 527/527/527 528/528/528 529/529/529
f 530/530/530 531/531/531 532/532/532
f 533/533/533 534/534/534 535/535/535
f 536/536/536 537/537/537 538/538/538
f 539/539/539 540/540/540 541/541/541
f 542/542/542 543/543/543 544/544/544
f 545/545/545 546/546/546 547/547/547
f 548/548/548 549/549/549 550/550/550
f 551/551/551 552/552/552 553/553/553
f 554/554/554 555/555/555 556/556/556
f 557/557/557 558/558/558 559/559/559
f 558/558/558 560/560/560 559/559/559
f 561/561/561 562/562/562 563/563/563
f 562/562/562 564/564/564 563/563/563
f 565/565/565 566/566/566 567/567/567
f 566/566/566 568/568/568 567/567/567
f 569/569/569 570/570/570 571/571/571
f 572/572/572 573/573/573 574/574/574
f 575/575/575 576/576/576 577/577/577
f 578/578/578 579/579/579 580/580/580
f 581/581/581 582/582/582 583/583/583
f 582/582/582 584/584/584 583/583/583
f 585/585/585 586/586/586 587/587/587
f 586/586/586 588/588/588 587/587/587
f 589/589/589 590/590/590 591/591/591
f 592/592/592 593/593/593 594/594/594
f 595/595/595 596/596/596 597/597/597
f 598/598/598 599/599/599 600/600/600
f 601/601/601 602/602/602 603/603/603
f 604/604/604 605/605/605 606/606/606
f 607/607/607 608/608/608 609/609/609
f 610/610/610 611/611/611 612/612/612
f 613/613/613 614/614/614 615/615/615
f 616/616/616 617/617/617 618/618/618
f 619/619/619 620/620/620 621/621/621
f 622/622/622 623/623/623 624/624/624
f 625/625/625 626/626/626 627/627/627
f 628/628/628 629/629/629 630/630/630
f 631/631/631 632/632/632 633/633/633
f 632/632/632 634/634/634 633/633/633
f 635/635/635 636/636/636 637/637/637
f 636/636/636 638/638/638 637/637/637
f 639/639/639 640/640/640 641/641/641
f 640/640/640 642/642/642 641/641/641
f 643/643/643 644/644/644 645/645/645
f 644/644/644 646/646/646 645/645/645
f 647/647/647 648/648/648 649/649/649
f 648/648/648 650/650/650 649/649/649
f 651/651/651 652/652/652 653/653/653
f 652/652/652 654/654/654 653/653/653
f 655/655/655 656/656/656 657/657/657
f 656/656/656 658/658/658 657/657/657
f 659/659/659 660/660/660 661/661/661
f 660/660/660 662/662/662 661/661/661
f 663/663/663 664/664/664 665/665/665
f 664/664/664 666/666/666 665/665/665
f 667/667/667 668/668/668 669/669/669
f 668/668/668 670/670/670 669/669/669
f 671/671/671 672/672/672 673/673/673
f 672/672/672 674/674/674 673/673/673
f 675/675/675 676/676/676 677/677/677
f 676/676/676 678/678/678 677/677/677
f 679/679/679 680/680/680 681/681/681
f 680/680/680 682/682/682 681/681/681
f 683/683/683 684/684/684 685/685/685
f 684/684/684 686/686/686 685/685/685
f 687/687/687 688/688/688 689/689/689
f 688/688/688 690/690/690 689/689/689
f 691/691/691 692/692/692 693/693/693
f 692/692/692 694/694/694 693/693/693
f 695/695/695 696/696/696 697/697/697
f 696/696/696 698/698/698 697/697/697
f 699/699/699 700/700/700 701/701/701
f 700/700/700 702/702/702 701/701/701
f 703/703/703 704/704/704 705/705/705
f 704/704/704 706/706/706 705/705/705
f 707/707/707 708/708/708 709/709/709
f 708/708/708 710/710/710 709/709/709
f 711/711/711 712/712/712 713/713/713
f 712/712/712 714/714/714 713/713/713
f 715/715/715 716/716/716 717/717/717
f 716/716/716 718/718/718 717/717/717
f 719/719/719 720/720/720 721/721/721
f 720/720/720 722/722/722 721/721/721
f 723/723/723 724/724/724 725/725/725
f 724/724/724 726/726/726 725/725/725
f 727/727/727 728/728/728 729/729/729
f 728/728/728 730/730/730 729/729/729
f 731/731/731 732/732/732 733/733/733
f 734/734/734 735/735/735 736/736/736
f 737/737/737 738/738/738 739/739/739
f 740/740/740 741/741/741 742/742/742
f 743/743/743 744/744/744 745/745/745
f 746/746/746 747/747/747 748/748/748
f 749/749/749 750/750/750 751/751/751
f 752/752/752 753/753/753 754/754/754
f 755/755/755 756/756/756 757/757/757
f 756/756/756 758/758/758 757/757/757
f 759/759/759 760/760/760 761/761/761
f 760/760/760 762/762/762 761/761/761
f 763/763/763 764/764/764 765/765/765
f 764/764/764 766/766/766 765/765/765
f 767/767/767 768/768/768 769/769/769
f 768/768/768 770/770/770 769/769/769
f 771/771/771 772/772/772 773/773/773
f 772/772/772 774/774/774 773/773/773
f 775/775/775 776/776/776 777/777/777
f 776/776/776 778/778/778 777/777/777
f 779/779/779 780/780/780 781/781/781
f 780/780/780 782/782/782 781/781/781
f 783/783/783 784/784/784 785/785/785
f 784/784/784 786/786/786 785/785/785
f 787/787/787 788/788/788 789/789/789
f 788/788/788 790/790/790 789/789/789
